<svg version="1.1" xmlns="http://www.w3.org/2000/svg" xmlns:xlink="http://www.w3.org/1999/xlink" width="31.15704" height="40.21813" viewBox="0,0,31.15704,40.21813"><g transform="translate(-224.42147,-161.12486)"><g data-paper-data="{&quot;isPaintingLayer&quot;:true}" fill="#ffffff" fill-rule="nonzero" stroke="none" stroke-width="0.5" stroke-linecap="butt" stroke-linejoin="miter" stroke-miterlimit="10" stroke-dasharray="" stroke-dashoffset="0" style="mix-blend-mode: normal"><path d="M229.26475,190.68988c-0.00298,0.01827 -0.00687,0.03711 -0.01172,0.05653c-0.12127,0.48507 -0.60634,0.3638 -0.60634,0.3638c-1.79972,-0.64405 -0.83947,-1.82758 -0.19674,-2.89019c-1.89795,0.01565 -4.03269,-0.86243 -2.80601,-2.50552c0.03381,-1.01387 0.56363,-1.80497 1.28218,-2.29854c0.09662,-0.21365 0.34556,-0.27589 0.34556,-0.27589c0.754,-0.09709 1.63186,-2.44618 2.11855,-3.09253l0.25039,-0.25152c-0.48393,-0.23537 -0.96751,-0.49903 -1.4517,-0.7944c-1.01862,-1.25191 -2.45289,-2.20076 -3.23428,-3.63588c-1.11228,-2.04287 -0.34713,-6.92356 1.0347,-8.66073c0.61481,-0.92298 1.11324,-2.36111 1.95823,-3.08875c1.40616,-1.21086 4.53203,-1.78297 6.80185,-1.94283c0.14683,-0.17329 0.39353,-0.17329 0.39353,-0.17329l0.1514,0.05279c0.36982,-0.18267 0.76223,-0.32448 1.16251,-0.42404c4.25379,-0.0284 8.88117,0.03491 12.69092,2.19099c4.82975,2.7922 7.74287,7.62433 5.84452,13.46338c-0.71832,2.10288 -1.93502,3.34264 -3.42863,4.06571c0.03686,0.02663 0.05784,0.04762 0.05784,0.04762c0.94706,1.05251 0.71912,2.96727 -0.25,3.95711l-0.125,0.125c0,0 -0.12864,0.12864 -0.30832,0.15313c0.20818,0.91927 0.34411,1.8641 0.56484,2.74704c0.17421,0.69683 0.79701,2.09107 0.0323,2.66878c-0.13864,0.10474 -0.37768,0.10165 -0.6627,0.03909c-0.32816,-0.22787 -2.03326,-0.80063 -2.21955,-0.84997c-2.1471,-0.56876 -5.15731,0.01337 -7.38512,0.01337c-1.64243,0 -5.83462,-0.13347 -5.83462,-0.13347c-0.58944,0 -1.83406,0.13333 -1.90764,0.19726c-1.54745,0.12815 -3.02216,0.38465 -4.26095,0.87595zM236.51786,162.1375c-0.00817,0.48764 -0.4999,0.48764 -0.4999,0.48764c-1.97662,0 -5.9024,0.45928 -7.42962,1.75887c-0.74874,0.63715 -1.24937,2.09827 -1.79177,2.91125c-1.23521,1.53454 -1.64519,5.28646 -1.16698,7.215c0.36813,1.48463 2.31419,2.58682 3.2174,3.73839c4.17273,2.44459 8.21375,2.50149 12.92097,2.50149c4.45335,0 10.49836,1.21482 12.27566,-4.28312c1.82859,-5.32401 -1.00228,-9.796 -5.39197,-12.2789c-3.61674,-2.0895 -8.03449,-2.03226 -12.0726,-2.06673c-0.02045,0.00516 -0.04085,0.01053 -0.06119,0.01611zM250.91441,181.6037c0,0 -0.18582,-0.18583 -0.15331,-0.42276c-2.67323,0.93537 -6.02629,0.56921 -8.99313,0.56921c-4.03008,0 -7.63017,-0.06571 -11.17771,-1.52792c-0.04362,0.08136 -0.09374,0.13147 -0.09374,0.13147l-0.35083,0.34904c-0.44746,0.59928 -0.78445,1.43693 -1.22141,2.14159c0.71924,0.04409 1.38805,0.36441 1.79942,1.01135c0.0873,-0.65519 0.16926,-1.30932 0.16926,-1.98054v-0.25c0,0 0,-0.5 0.5,-0.5c0.5,0 0.5,0.5 0.5,0.5v0.25c0,1.44221 -0.375,2.79268 -0.375,4.25c0,0 0,0.5 -0.5,0.5c-0.093,0 -0.16869,-0.01729 -0.23031,-0.04546c0.27586,0.74029 -0.22461,1.2215 -1.02081,1.46082c-0.01648,0.28961 -0.21026,0.39674 -0.35136,0.43637c-0.29988,0.4092 -0.85814,1.15354 -0.81723,1.49045c0.09545,-0.12599 0.23401,-0.18142 0.23401,-0.18142c3.52048,-1.39195 8.671,-1.03576 12.4357,-1.03576c2.16666,0 4.33334,0 6.5,0c0.82389,0 1.34416,0.19565 2.12127,0.38993c0.24301,0.06076 0.73777,0.30865 1.00733,0.46218c-0.20566,-0.32258 -0.31061,-1.26857 -0.36368,-1.48083c-0.41683,-1.66732 -0.44842,-3.79656 -1.53993,-5.19627l-0.1,-0.55c0,0 0,-0.5 0.5,-0.5c0.5,0 0.5,0.5 0.5,0.5l-0.1,-0.05c0.40201,0.55155 0.67534,1.167 0.88022,1.81282c0.53559,-0.53314 0.87036,-2.03213 0.24122,-2.53426zM227.85971,185.36327c-0.02456,0.02399 -0.04174,0.03687 -0.04174,0.03687c-3.52479,2.60933 4.63528,2.41061 0.08512,-0.03838c-0.01446,0.0005 -0.02892,0.00101 -0.04338,0.00151zM230.14296,185.50014c0,-2.03241 -1.90286,-2.02768 -2.90286,-1.10021c0.08538,-0.02479 0.15286,-0.02479 0.15286,-0.02479h0.125c0.20496,0.00446 0.40992,0.00892 0.61488,0.01337c0.60451,0.28741 1.20592,0.53177 1.71272,0.9839c0.10865,0.09694 0.20764,0.19129 0.2974,0.28307z"/><path d="M232.68155,199.98004c2.5404,0.56688 6.87377,1.03739 6.58518,-2.12178c-0.04647,-0.08892 -0.06057,-0.17924 -0.06486,-0.22589c-1.234,-2.95805 -6.92019,-1.13214 -8.75597,0.13565c-0.08109,1.32172 1.03053,1.91064 2.23565,2.21202zM240.11841,196.9454c1.19875,4.85967 -4.21832,4.7713 -7.66662,4.00789c-1.77018,-0.4424 -3.2166,-1.49538 -2.98126,-3.48198l0.06354,-0.09784c-0.00396,-0.11159 0.02492,-0.19826 0.02492,-0.19826l0.04487,-0.1039c0.13483,-0.95931 0.72846,-1.65635 1.10324,-2.53494c0,0 0.19696,-0.45957 0.65653,-0.26261c0.45958,0.19696 0.26261,0.65653 0.26261,0.65653c-0.21079,0.4898 -0.54667,0.95397 -0.77934,1.44282c2.11686,-1.07745 5.39439,-1.82503 7.55948,-0.79838c-0.22541,-0.48569 -0.37486,-0.97484 -0.25812,-1.56267c0,0 0.12127,-0.48508 0.60634,-0.36381c0.48507,0.12127 0.3638,0.60634 0.3638,0.60634c-0.21035,0.58739 0.51801,1.48329 0.7745,2.08177l0.08978,0.11961c0,0 0.11434,0.1715 0.08607,0.36769c0.03611,0.06758 0.04964,0.12172 0.04964,0.12172z"/><path d="M239.96667,193.16667c-0.5,0 -0.5,-0.5 -0.5,-0.5l0.01493,-0.32126c0.07831,-0.17659 -0.0182,-0.42865 -0.16348,-0.55598c-0.42316,-0.58285 -1.45003,-0.39635 -2.12038,-0.35706c-1.65363,0.09695 -5.06782,-0.17811 -6.70186,0.73082c0.01851,0.02309 0.02813,0.03848 0.02813,0.03848c0.11111,0.17778 0.22222,0.35556 0.33333,0.53334l0.08989,0.17472c0,0 0.2236,0.44721 -0.22361,0.67082c-0.44721,0.2236 -0.67082,-0.2236 -0.67082,-0.2236l-0.04345,-0.09194c-0.11111,-0.17778 -0.22223,-0.35555 -0.33334,-0.53333c0,0 -0.04629,-0.07407 -0.06922,-0.17964c-0.07451,-0.02644 -0.15104,-0.07745 -0.22422,-0.16526c-0.32009,-0.38411 0.06402,-0.70421 0.06402,-0.70421c1.63828,-1.30021 9.1502,-2.1934 10.63531,-0.53864c0.29769,0.39783 0.45565,0.9546 0.36986,1.44402l0.01493,0.07873c0,0 0,0.5 -0.5,0.5z"/><path d="M250.27522,191.85899c0.47434,-0.15811 0.63246,0.31623 0.63246,0.31623l0.0774,0.23685c0.16578,1.96293 -6.10966,2.06936 -7.58611,1.29627c-1.10486,-0.57852 -0.85275,-2.09469 -0.15239,-2.75911c0,0 0.38411,-0.32009 0.7042,0.06402c0.32009,0.38411 -0.06402,0.7042 -0.06402,0.7042c-0.5998,0.36195 -0.17837,1.11292 0.43815,1.11651c0.93202,0.00542 5.70668,-0.16575 5.69002,-0.17935l-0.05594,-0.16315c0,0 -0.15811,-0.47434 0.31623,-0.63246z"/><path d="M236.04096,194.09861c-0.22361,0.44721 -0.67082,0.22361 -0.67082,0.22361l-0.125,-0.0625c-0.24829,-0.12563 -0.50967,-0.22573 -0.77587,-0.3095c-0.04006,0.03261 -0.0702,0.04936 -0.0702,0.04936c-0.1875,0.10417 -0.375,0.20833 -0.5625,0.3125l-0.30532,0.06292c0,0 -0.5,0 -0.5,-0.5c0,-0.37119 0.27557,-0.46682 0.41755,-0.49145c0.12393,-0.06885 0.24786,-0.1377 0.37178,-0.20655c0.15586,-0.40339 0.59223,-0.28438 0.59223,-0.28438c0.43828,0.12104 0.87205,0.27095 1.27955,0.47267l0.125,0.0625c0,0 0.44721,0.22361 0.22361,0.67082z"/></g></g></svg>