<svg version="1.1" xmlns="http://www.w3.org/2000/svg" xmlns:xlink="http://www.w3.org/1999/xlink" width="34.87345" height="39.70244" viewBox="0,0,34.87345,39.70244"><g transform="translate(-223.08289,-160.18365)"><g data-paper-data="{&quot;isPaintingLayer&quot;:true}" fill="#ffffff" fill-rule="nonzero" stroke="none" stroke-width="0.5" stroke-linecap="butt" stroke-linejoin="miter" stroke-miterlimit="10" stroke-dasharray="" stroke-dashoffset="0" style="mix-blend-mode: normal"><path d="M236.12111,166.00911c0.032,-0.1472 0.13761,-0.39007 0.48608,-0.39007c0.5,0 0.5,0.5 0.5,0.5l-0.09313,0.36205c-1.48517,2.06786 -3.54484,2.83713 -6.03351,2.56347c0,0 -0.49694,-0.05522 -0.44173,-0.55216c0.05522,-0.49694 0.55216,-0.44173 0.55216,-0.44173c2.07958,0.23367 3.77395,-0.34544 5.03013,-2.04156z"/><path d="M249.51186,171.61484c-0.13069,0.0166 -0.26473,0.02546 -0.40121,0.02591c-0.29908,-0.03811 -0.71111,-0.13224 -1.11899,-0.28349c-0.32993,-0.04616 -0.61321,-0.09785 -0.81723,-0.14436c-0.1087,-0.05363 -0.21253,-0.10725 -0.31162,-0.16082c0.0828,0.19566 0.14511,0.31467 0.34852,0.5936c0.13089,0.17948 0.49936,0.61483 0.72709,0.70301c1.2275,0.47534 1.62511,-0.03363 1.57344,-0.73386zM245.60905,170.15249c-1.16346,-1.21289 -0.1078,-2.25596 1.46413,-2.55573c0.5247,-0.2498 1.12736,-0.28821 1.6973,-0.02827c0.6301,0.09685 1.25265,0.31841 1.78488,0.69254c0.20486,0.144 0.37544,0.29204 0.51458,0.44197c0.2016,-0.02223 0.37177,0.1054 0.37177,0.1054l0.34629,0.2746c1.31221,1.70356 0.18608,2.27358 -1.32204,2.3868c0.04233,0.2957 0.03167,0.57453 -0.04473,0.81354c-0.88495,2.76873 -3.93248,0.41556 -4.61019,-1.1553c-0.12468,-0.3336 -0.18881,-0.6613 -0.202,-0.97554zM247.52105,168.60784c-0.42232,0.06429 -0.79268,0.30288 -0.92976,0.76154c0.02977,0.00065 0.0584,0.00399 0.08525,0.00898c0.0417,-0.07399 0.09188,-0.14982 0.15118,-0.22749c0.21493,-0.28155 0.44974,-0.45591 0.69333,-0.54303zM250.11815,170.39502c0.00658,0.0134 0.01309,0.02682 0.01953,0.04026c0.47182,-0.2394 0.66456,-0.6645 0.09972,-1.16076c0.17948,0.50187 0.10858,0.86724 -0.11925,1.1205zM248.82641,170.08172c-0.36525,-0.40177 -0.8198,-0.60037 -1.21985,-0.29615c0.40358,0.15494 0.8833,0.29974 1.21985,0.29615z"/><path d="M236.85709,181.51969c-5.86346,-1.15001 -10.55488,-1.6298 -13.42366,-7.44641c-1.16424,-5.63683 3.522,-10.76505 8.89123,-11.86528c2.13553,-0.80083 4.7918,-1.82344 7.11668,-1.51012c0.10097,-0.22395 0.36695,-0.27715 0.36695,-0.27715c5.49679,-1.07679 9.21222,1.65916 12.81291,5.27821c3.05495,4.26387 5.3489,10.74038 0.43691,14.41518c-0.01931,0.00968 -0.03863,0.01931 -0.05795,0.02889c-0.04623,0.00774 -0.07857,0.02391 -0.07857,0.02391c0,0 -0.80771,0.35302 -0.80704,0.3775c-4.8586,2.00349 -10.02845,0.97527 -15.25746,0.97527zM240.60837,161.29342c0.04147,0.10314 0.04813,0.23539 -0.03256,0.39676c-0.2236,0.44721 -0.67082,0.22361 -0.67082,0.22361l-0.31889,-0.17915c-2.20457,-0.45171 -4.93238,0.6645 -6.98691,1.43494c-4.8126,0.93664 -9.19102,5.49963 -8.21988,10.57916c2.7478,5.40724 7.08772,5.65399 12.57634,6.77581c5.30795,0 10.69162,1.17491 15.57676,-1.26109c4.33665,-3.26337 1.98694,-9.17968 -0.6742,-12.91815c-3.20801,-3.18946 -6.46114,-5.77977 -11.24983,-5.05191z"/><path d="M249.91652,195.59877c0,0 -0.39043,0.31234 -0.70279,-0.07809c-0.31235,-0.39043 0.07809,-0.70278 0.07809,-0.70278c0.95568,-0.75714 2.00332,-1.06849 3.18848,-1.26943l0.18041,-0.03007c-0.68816,-0.32773 -1.43553,-0.60275 -1.99982,-1.07237l-0.23346,-0.23056c0,0 -0.35356,-0.35356 0,-0.70711c0.35356,-0.35356 0.70711,0 0.70711,0l0.16654,0.16944c0.88836,0.74134 2.88815,1.11879 3.4457,2.13315c0.47058,0.85614 -0.1735,1.3776 -0.64301,1.96454c-1.75665,2.19599 -2.83567,2.76614 -5.60246,3.11687c-0.89193,0.08109 -7.15217,0.17612 -8.71212,-1.0766c-0.03478,-0.11877 4.10191,1.63074 4.78011,0.11032c0.39719,-0.89043 1.62423,-2.19176 1.78805,-2.62877c0.25601,-0.68292 -2.01939,-1.63367 -2.50665,-1.8425c0,0 -0.45957,-0.19696 -0.26261,-0.65653c0.19696,-0.45958 0.65653,-0.26261 0.65653,-0.26261c1.09807,0.4706 3.39662,1.44672 3.09336,2.9575c-0.04318,0.21513 -0.9601,1.97642 -1.56241,2.65202c0.28495,-0.02253 0.62443,-0.02552 0.8162,-0.04682c0.60188,-0.06686 1.19873,-0.14538 1.80224,-0.20024c2.16268,-0.26683 3.06402,-0.42628 4.46638,-2.1525c0.04756,-0.05854 0.88878,-0.97185 1.01876,-1.3174c-0.57648,-0.0018 -0.98925,0.00657 -1.47421,0.37388l0.00001,0.00001c0,0 -0.38246,0.27318 -0.67062,-0.08097c-0.65441,0.16999 -1.26073,0.42664 -1.81782,0.87761z"/><path d="M234.11554,195.12376c0.45957,-0.19696 0.65653,0.26261 0.65653,0.26261l0.07504,0.2019c0.042,0.06 0.08399,0.11999 0.12599,0.17999c0.14141,0.03028 0.24225,0.11432 0.24225,0.11432c0.26667,0.22222 0.53333,0.44444 0.8,0.66667l0.23346,0.23056c0,0 0.00335,0.00335 0.00906,0.00971c0.29584,-0.17647 0.56018,-0.40966 0.78508,-0.70773c1.12208,-1.28311 2.37328,-2.20353 3.0594,-3.81205l0.17269,-0.22326c0,0 0.35355,-0.35355 0.70711,0c0.35355,0.35355 0,0.70711 0,0.70711l0.00732,-0.01672c-0.73931,1.66182 -2.00371,2.64334 -3.17523,3.98141c-0.8398,1.05407 -2.02785,1.47331 -3.35103,1.48263c-2.58335,0.01819 -6.26512,-1.94286 -8.29251,-3.37615c0.10467,0.19659 -0.05471,1.39328 0.95302,2.25518c0.91441,0.78208 3.4186,2.14364 3.4186,2.14364c0,0 3.93393,1.35646 0.04322,0.18747c-0.56612,-0.17009 -3.91045,-2.10298 -3.92499,-2.11743c-0.73755,-0.73249 -1.05115,-2.0554 -1.16059,-2.58667c-0.13262,-0.64378 0.0024,-1.30388 0.0024,-1.30388c0.20951,-0.48885 0.41934,-0.97736 0.63326,-1.46431c0.51508,-0.62892 0.98677,-1.01253 1.43037,-1.214c0.1037,-0.19404 3.00634,-1.17079 3.53929,-1.25963l-1.50114,0.70153c0,0 0.38386,0.86583 0.26352,0.9305l0.00001,0.00001c0.85206,0.56421 1.70709,1.42875 2.72215,1.94522c0.19305,0.09823 1.57729,-1.28764 1.75189,-1.46258c0,0 0.35355,-0.35355 0.70711,0c0.35355,0.35355 0,0.70711 0,0.70711c-0.52417,0.52325 -1.80292,1.93568 -2.64811,1.73742c-2.04714,-0.4802 -3.16742,-4.20042 -5.41247,-1.56305c-0.17803,0.4296 -0.36144,0.85676 -0.54465,1.28417c1.75044,1.45667 5.96536,3.92888 8.75785,3.42723c-0.1483,-0.12358 -0.2966,-0.24716 -0.44489,-0.37075c-0.26623,0.02042 -0.437,-0.22354 -0.437,-0.22354c-0.09722,-0.13889 -0.19444,-0.27778 -0.29167,-0.41667l-0.17496,-0.38144c0,0 -0.19696,-0.45957 0.26261,-0.65653z"/><path d="M251.8271,181.92249c-0.01933,-0.16555 -0.03866,-0.33108 -0.05799,-0.49663c0,0 -0.05799,-0.49663 0.43863,-0.55462c0.49663,-0.05799 0.55462,0.43863 0.55462,0.43863c0.01933,0.16555 0.03866,0.33108 0.05799,0.49663l0.14778,0.25504c0,0 0.1035,0.221 0.01149,0.42651c1.75725,0.57302 4.08905,1.55035 3.93435,2.51433c0.08371,0.0436 0.13559,0.09489 0.13559,0.09489v-0.00001l0.34405,0.34127c2.29279,2.8315 -3.04866,3.54805 -4.78355,3.0398c0,0 -0.17051,-0.05064 -0.27794,-0.1932c-0.09645,0.03699 -0.1958,0.06573 -0.29874,0.08468c-0.8843,0.16278 -2.14909,-0.23996 -3.38771,-0.84155l-0.86104,-0.03814l-0.23372,0.08131c-0.25683,0.01202 -0.55905,-0.28912 -0.70832,-0.58698c-0.0077,-0.0452 -0.02564,-0.08881 -0.05512,-0.12968c-0.01981,-0.05736 -0.03251,-0.11277 -0.03656,-0.1638c0.13129,0.00433 -1.21051,-1.06615 -1.67982,-1.49069c0,0 -0.37067,-0.33556 -0.03511,-0.70623c0.33556,-0.37067 0.70623,-0.03512 0.70623,-0.03512c1.12665,1.02069 4.61096,3.23957 6.11866,2.92587c1.04666,-0.21777 1.93581,-1.91825 3.27628,-2.24577c2.22852,-0.77492 -2.41812,-1.75735 -3.77425,-2.08459c-0.09487,0.00437 -0.48289,-0.00472 -0.53373,-0.44013c-0.05799,-0.49663 0.43863,-0.55462 0.43863,-0.55462l0.24902,0.00298c0.11829,0.02929 0.25802,0.06586 0.41447,0.10907zM256.65279,186.11025l-0.30636,-0.30191c0,0 -0.03305,-0.03268 -0.06902,-0.08818c-0.2207,0.12855 -0.50348,0.25484 -0.85643,0.37778c-0.84615,0.20842 -1.44503,0.90468 -2.0619,1.47673c1.34392,0.05507 4.61068,-0.307 3.29371,-1.46442z"/><path d=""/><path d="M250.53633,189.08974c0.09915,0.49007 -0.39092,0.58922 -0.39092,0.58922l-0.53004,0.10595c-1.06697,0.06283 -1.91515,0.47372 -2.93978,0.66811c-3.40616,0.62127 -6.37172,-0.12877 -9.71733,0.06456c0,0 -0.2097,0.01212 -0.36513,-0.11528c-0.95653,-0.11028 -3.28636,-0.8534 -3.32445,-0.79546c-0.10457,-0.02527 -1.35336,-0.21002 -1.30622,-0.29163c-0.23966,-0.04807 -0.44497,-0.08428 -0.55895,-0.09389c-0.45133,-0.03808 -1.71588,0.00469 -1.93051,-0.49765c-0.37899,-0.88701 1.62846,-2.30202 2.15807,-2.70006c0.94476,-0.91201 1.26398,-1.57249 0.99967,-2.87892l-0.1259,-0.23529c0,0 -0.21217,-0.45275 0.24058,-0.66492v0.00001c0.45275,-0.21217 0.66492,0.24058 0.66492,0.24058l0.20054,0.46133c0.33844,1.67286 -0.12294,2.67832 -1.33099,3.83816c-0.15399,0.1163 -1.25035,1.04428 -1.69908,1.4016c0.40399,-0.05936 1.30109,0.07165 1.41007,0.08115c1.61412,0.14068 3.13419,1.25899 4.78927,1.14917c0,0 0.18278,-0.01056 0.33353,0.0917c3.22424,-0.14803 6.09226,0.57193 9.38086,-0.03866c1.03404,-0.18331 1.90879,-0.61498 2.99253,-0.67637l0.46005,-0.09436c0,0 0.49007,-0.09915 0.58922,0.39092z"/><path d="M227.2991,189.02473l-0.22587,0.14832c-2.41188,1.85197 -5.37694,-1.49233 -3.2746,-3.65703c0,0 0.15895,-0.15895 0.37028,-0.15712c0.019,-0.21415 0.08276,-0.43167 0.20128,-0.65037c0.59644,-1.10052 4.97873,-2.33829 6.17805,-2.54955c0,0 0.4932,-0.0822 0.5754,0.411c0.0822,0.4932 -0.411,0.5754 -0.411,0.5754c-2.51825,0.38812 -7.66219,1.94048 -3.76042,4.34921c0.15056,0.03577 0.30111,0.07154 0.45167,0.1073l0.09612,-0.01493c0,0 0.5,0 0.5,0.5c0,0.42289 -0.35767,0.48811 -0.46799,0.49817c0.01968,0.2712 -0.23292,0.4396 -0.23292,0.4396zM226.44853,188.39218l0.03607,-0.02432c-0.69403,-0.41935 -1.67096,-1.15057 -2.10239,-2.01245c-1.03842,1.24814 0.73569,3.16896 2.06632,2.03677z"/><path d="M238.89718,171.18853c0.4289,0.76395 0.4418,1.60226 -0.32208,1.85904c0.09837,0.02242 0.18204,0.04082 0.24613,0.05542c1.21849,0.07412 0.95089,-1.07274 0.33202,-1.6761c-0.08228,-0.08021 -0.16772,-0.15991 -0.25606,-0.23836zM235.98313,171.86794c0.2038,-0.26161 0.54995,-0.13944 0.54995,-0.13944c0.29457,0.10531 0.58048,0.23903 0.88371,0.31593c2.75501,0.69869 -1.40406,-2.51828 -1.55172,-0.60438c-0.01192,0.15455 0.03226,0.29697 0.11807,0.42789zM236.16813,169.89744c-0.86157,-0.03477 -1.48403,0.37537 -1.15463,1.0665c0.05958,-0.11364 0.13714,-0.23003 0.23442,-0.34913c0.29457,-0.36062 0.60628,-0.5907 0.92021,-0.71737zM237.18041,173.62825c-0.55678,-0.03619 -1.10658,-0.24465 -1.59779,-0.50857c-0.36725,-0.43016 -0.79699,-0.75978 -1.14147,-1.20954c-1.22283,-1.59654 -0.05563,-3.10351 1.81709,-3.00953c1.5014,0.07535 3.4997,1.24241 4.27385,2.58112c0.8269,1.42993 -0.53305,2.57647 -1.81998,2.61527c-0.36395,-0.07918 -0.9373,-0.23711 -1.5317,-0.46876z"/></g></g></svg>