<svg version="1.1" xmlns="http://www.w3.org/2000/svg" xmlns:xlink="http://www.w3.org/1999/xlink" width="31.40817" height="38.4282" viewBox="0,0,31.40817,38.4282"><g transform="translate(-224.30749,-160.77043)"><g data-paper-data="{&quot;isPaintingLayer&quot;:true}" fill="#ffffff" fill-rule="nonzero" stroke="none" stroke-width="0.5" stroke-linecap="butt" stroke-linejoin="miter" stroke-miterlimit="10" stroke-dasharray="" stroke-dashoffset="0" style="mix-blend-mode: normal"><path d="M231.9,181.50007c0.5,0 0.5,0.5 0.5,0.5l-0.00386,0.20465c0.05499,0.74679 0.67269,0.81184 0.44936,1.7393c-0.73055,3.03388 -8.21262,1.52248 -5.19627,-2.26405c0,0 0.25404,-0.30485 0.58106,-0.14507c-0.00192,-0.13253 -0.01029,-0.26885 -0.02723,-0.41296c0,0 -0.05522,-0.49694 0.44173,-0.55216c0.49694,-0.05522 0.55216,0.44173 0.55216,0.44173c0.0672,0.63485 0.01119,1.15459 -0.06747,1.7839l-0.07773,0.32592c0,0 -0.12127,0.48507 -0.60634,0.3638c-0.48507,-0.12127 -0.3638,-0.60634 -0.3638,-0.60634l0.04408,-0.16443c-1.11243,1.91806 3.19045,2.5493 3.76217,0.94174c0.05924,-0.16657 -0.44883,-1.10116 -0.48398,-1.32736l-0.00386,-0.32868c0,0 0,-0.5 0.5,-0.5z"/><path d="M253.6,185.26674v0.06667c-0.07489,1.76419 -1.58132,1.70016 -2.55078,0.58676c0,0 -0.26942,-0.3233 -0.0173,-0.62386c-0.8982,-0.40554 -1.29593,-1.72357 -1.65817,-2.56593c0,0 -0.19696,-0.45957 0.26261,-0.65653c0.45957,-0.19696 0.65653,0.26261 0.65653,0.26261c0.23032,0.53943 0.49391,1.42061 0.85342,1.8716c0.50305,0.63106 1.80514,-0.00579 1.52146,-0.7566l-0.28522,-0.33127c0,0 -0.32009,-0.38411 0.06402,-0.7042c0.38411,-0.32009 0.7042,0.06402 0.7042,0.06402l0.38144,0.46873c0.24943,0.66785 0.1176,1.35376 -0.26315,1.84069c0.33093,0.09761 0.33093,0.47734 0.33093,0.47734zM252.6,185.3334v-0.02016c-0.19011,0.0845 -0.40032,0.13708 -0.62603,0.15014c0.30745,0.32742 0.68102,0.53867 0.62603,-0.12998z"/><path d="M250.48932,186.78404c0.41603,-0.27735 0.69338,0.13868 0.69338,0.13868l0.17688,0.28039c0.3211,0.7553 0.37622,1.14554 0.24584,1.9701c-1.98279,1.80509 -3.76706,0.80494 -6.21267,0.24856c-2.08529,-0.47441 -4.58882,-0.1306 -6.73006,-0.25642c-2.70346,-0.24554 -5.24603,-0.21782 -7.86967,0.45002c-0.53844,0.13706 -1.67974,0.71095 -2.04587,-0.29859c-0.14724,-0.40599 1.38798,-2.57567 1.45534,-3.29979c0,0 0.04975,-0.49752 0.54727,-0.44777c0.49752,0.04975 0.44777,0.54727 0.44777,0.54727c-0.026,0.24583 -0.52207,2.07619 -1.0144,2.75916c0.82093,-0.29872 2.46426,-0.8105 2.72697,-0.83904c1.87769,-0.20397 3.95134,-0.03918 5.82723,0.13152c2.20487,0.12985 4.71576,-0.19236 6.86994,0.27691c1.89421,0.41264 3.58569,1.3713 5.12066,0.24856c0.00994,-0.41443 -0.12388,-0.71837 -0.2875,-1.09657l-0.08979,-0.11961c0,0 -0.27735,-0.41603 0.13868,-0.69338z"/><path d="M239.9,192.50007c-0.5,0 -0.5,-0.5 -0.5,-0.5l0.00386,-0.00465c-0.18016,-1.8041 -4.28507,-0.94266 -5.64089,-0.766c-0.4503,0.05867 -1.15954,0.15824 -1.62423,0.25941c-0.32892,0.07161 -1.03717,-0.13541 -1.14074,0.05728l0.27981,0.32645c0.07612,0.08773 0.12219,0.20224 0.12219,0.32751c0,0.27614 -0.22386,0.5 -0.5,0.5c-0.12295,0 -0.23554,-0.04438 -0.32261,-0.11799l-0.39748,-0.33123c0,0 -0.38411,-0.32009 -0.06402,-0.7042c0.04627,-0.05553 0.09388,-0.09634 0.14147,-0.12553c-0.02103,-0.20995 0.02582,-0.44133 0.14199,-0.55389c0.32058,-0.31062 1.83821,-0.42207 2.28723,-0.49403c2.16986,-0.34777 7.2868,-1.47642 7.70956,1.49819l0.00386,0.12868c0,0 0,0.5 -0.5,0.5z"/><path d="M236.9184,192.74547c0.12127,0.48507 -0.3638,0.60634 -0.3638,0.60634l-0.19097,0.04117c-0.91048,0.38707 -1.54054,0.45454 -2.48841,0.1481c0,0 -0.47434,-0.15811 -0.31623,-0.63246c0.15811,-0.47434 0.63246,-0.31623 0.63246,-0.31623c0.71143,0.24642 1.09301,0.17789 1.77826,-0.11856l0.34236,-0.09217c0,0 0.48507,-0.12127 0.60634,0.3638z"/><path d="M239.43333,193.70007c0.5,0 0.5,0.5 0.5,0.5l-0.04043,0.46363c-1.13185,2.49529 -6.63508,2.42789 -8.44633,0.92048c0,0 -0.31359,-0.26132 -0.13796,-0.59507c-0.17981,-0.25503 -0.2682,-0.57906 -0.23808,-0.98439c0,0 0.06202,-0.49614 0.55816,-0.43412c0.49614,0.06202 0.43412,0.55816 0.43412,0.55816c-0.21803,0.93998 1.15393,0.57081 1.77053,0.57132c1.59873,0.00132 3.29687,-0.20742 4.68526,-1.00079l-0.03462,-0.04323c0,0 0.27735,-0.41603 0.69338,-0.13868c0.08693,0.05795 0.14358,0.12196 0.17882,0.18696c0.0243,-0.00279 0.04999,-0.00427 0.07716,-0.00427zM235.52623,195.6374c1.26579,0.00344 2.51792,-0.25365 3.13867,-0.89438c-0.7202,0.3245 -1.91097,0.68829 -3.13867,0.89438z"/><path d="M246.08746,193.84191c0.15812,-0.47434 0.63246,-0.31623 0.63246,-0.31623l-0.07821,0.22356c0.26667,-0.22223 0.53333,-0.44445 0.8,-0.66667c0,0 0.38411,-0.32009 0.7042,0.06402c0.32009,0.38411 -0.06402,0.7042 -0.06402,0.7042c-0.26667,0.22223 -0.53333,0.44445 -0.8,0.66667l-0.87821,-0.0431c0,0 -0.47434,-0.15812 -0.31623,-0.63246z" data-paper-data="{&quot;index&quot;:null}"/><path d="M249.76928,191.64066c-1.12792,-0.32805 -2.59611,0.19163 -3.80262,0.19269c-0.23508,0.00021 -2.22567,-0.10705 -1.54657,0.18256c0,0 0.38411,0.32009 0.06402,0.7042c-0.32009,0.38411 -0.7042,0.06402 -0.7042,0.06402c-2.12516,-2.15217 5.11294,-2.47829 6.41154,-2.05845l0.26211,0.18745c0,0 0.01902,0.01902 0.04383,0.05266c0.04943,-0.13726 0.19016,-0.38586 0.55148,-0.32564c0.4932,0.0822 0.411,0.5754 0.411,0.5754l-0.0917,0.49336c-0.43178,1.15141 -0.32433,1.89299 -0.17203,3.09575c0,0 0.06202,0.49614 -0.43412,0.55816c-0.49614,0.06202 -0.55816,-0.43412 -0.55816,-0.43412c-0.15055,-1.22217 -0.24252,-2.08231 0.1004,-3.19774c-0.2452,0.12347 -0.46531,-0.03197 -0.53498,-0.0903z"/><path d="M244.90627,197.72503c1.07624,0.6681 4.0878,0.48722 5.1464,0.28412c0.05773,-0.92678 -4.06014,-0.99636 -4.88904,-0.61624l-0.07319,0.18611c0,0 -0.0696,0.087 -0.18417,0.14601zM245.34893,196.28992c2.15995,-0.53174 6.23057,-0.14813 5.46506,2.3676c-1.33465,0.66757 -5.70459,0.90269 -6.82049,-0.39139c-1.28493,-1.4901 1.12834,-1.9538 0.18905,-3.07936c0,0 -0.32009,-0.38411 0.06402,-0.7042c0.38411,-0.32009 0.7042,0.06402 0.7042,0.06402c0.21975,0.26404 0.79073,0.8973 0.78221,1.20538c-0.00304,0.10978 -0.17633,0.30739 -0.38405,0.53797z"/><path d="M231.25486,197.82361c-0.22361,-0.1118 -0.1118,-0.33541 -0.1118,-0.33541l0.04774,-0.08216c0.04521,-0.17513 0.06032,-0.3585 0.0592,-0.53937c0,0 0,-0.25 0.25,-0.25c0.25,0 0.25,0.25 0.25,0.25c-0.00114,0.22159 -0.02171,0.44533 -0.07413,0.66063l-0.0856,0.1845c0,0 -0.1118,0.22361 -0.33541,0.1118z"/><path d="M239.16667,198.18333c-0.25,0 -0.25,-0.25 -0.25,-0.25v-0.06667c0.00212,-0.26693 -0.0612,-0.48069 -0.12587,-0.73937c0,0 -0.06063,-0.24254 0.1819,-0.30317c0.24254,-0.06063 0.30317,0.1819 0.30317,0.1819c0.07462,0.29848 0.13885,0.55158 0.1408,0.86063v0.06667c0,0 0,0.25 -0.25,0.25z"/><path d="M234.79618,162.18377c-0.01055,-0.04218 -0.01651,-0.08162 -0.0186,-0.11846c-2.5726,-0.55756 -6.47877,1.96222 -7.78086,3.41819c-2.20597,3.70103 -2.47694,7.68409 0.45058,11.10045c2.77989,2.37058 6.49152,3.85355 10.20895,3.85355c4.02362,0 7.71141,0.08887 11.69752,-0.30974c4.66017,-0.51776 5.33338,-3.48766 5.36873,-7.62917c-0.478,-1.84782 -1.3985,-4.86788 -2.84879,-6.19923c-1.28009,-1.17511 -2.8816,-1.66292 -4.25685,-2.66631c-3.13379,-1.00741 -7.38811,-2.62082 -10.7271,-1.4814c0.04164,0.04494 0.32352,0.37342 -0.00496,0.7019c-0.35355,0.35355 -0.70711,0 -0.70711,0c-0.13751,-0.15068 -0.28699,-0.27947 -0.44681,-0.38808c-0.02612,0.00653 -0.05224,0.01307 -0.07837,0.0196l-0.25,0.0625c0,0 -0.48507,0.12127 -0.60634,-0.3638zM235.78903,161.42029c0.19783,-0.04933 0.39568,-0.09856 0.59356,-0.14768c3.62141,-1.33886 8.25698,0.2938 11.68804,1.46933c1.47107,1.03225 3.15895,1.57164 4.49315,2.83369c1.6149,1.52757 2.63913,4.69766 3.15121,6.80077c0.03129,4.68659 -1.03332,8.16546 -6.25627,8.74583c-4.02011,0.40201 -7.74696,0.31526 -11.80248,0.31526c-3.97714,0 -7.95156,-1.59451 -10.91605,-4.14645c-3.25823,-3.80048 -3.04103,-8.27171 -0.54942,-12.39955c1.85546,-2.09878 6.52086,-4.81402 9.59825,-3.47121z"/></g></g></svg>