<svg version="1.1" xmlns="http://www.w3.org/2000/svg" xmlns:xlink="http://www.w3.org/1999/xlink" width="32.6339" height="39.87514" viewBox="0,0,32.6339,39.87514"><g transform="translate(-223.39285,-160.30076)"><g data-paper-data="{&quot;isPaintingLayer&quot;:true}" fill="#ffffff" fill-rule="nonzero" stroke="none" stroke-width="0.5" stroke-linecap="butt" stroke-linejoin="miter" stroke-miterlimit="10" stroke-dasharray="" stroke-dashoffset="0" style="mix-blend-mode: normal"><path d="M236.12106,166.17577c0.032,-0.1472 0.13761,-0.39007 0.48608,-0.39007c0.5,0 0.5,0.5 0.5,0.5l-0.09313,0.36205c-1.48517,2.06786 -3.54484,2.83713 -6.03351,2.56347c0,0 -0.49694,-0.05522 -0.44173,-0.55216c0.05522,-0.49694 0.55216,-0.44173 0.55216,-0.44173c2.07958,0.23367 3.77395,-0.34544 5.03013,-2.04156z"/><path d="M240.50337,161.32204c0.07425,0.08486 0.12475,0.20951 0.09875,0.39153c-0.07071,0.49497 -0.56569,0.42426 -0.56569,0.42426c-3.4625,-0.49464 -5.81491,0.54984 -9.09231,1.4658c-3.08538,1.79047 -6.55126,4.27286 -6.55126,8.25351c0,3.78623 3.29317,6.42021 6.64777,7.37948c4.09023,1.3632 7.75905,1.69195 12.06651,1.69195c3.36177,0.0079 8.39716,0.21065 10.62227,-2.75617c2.85636,-2.75861 0.45418,-7.40755 -0.92025,-10.15076c-1.91904,-3.3598 -5.32147,-5.16604 -8.90278,-6.18152c-1.19635,-0.30063 -2.19348,-0.63162 -3.40301,-0.51809zM239.26398,161.04787c-0.00266,-0.01199 -0.00506,-0.02435 -0.00718,-0.0371c-0.0822,-0.4932 0.411,-0.5754 0.411,-0.5754l0.44006,-0.07321c1.4739,-0.21056 2.64148,0.16002 4.05719,0.51199c3.85356,1.11024 7.45982,3.0616 9.52579,6.67563c1.60094,3.20772 3.90938,8.07553 0.79403,11.27782c-2.42997,3.23997 -7.70403,3.09102 -11.37773,3.10097c-4.40352,0 -8.17912,-0.34208 -12.36206,-1.73662c-3.76273,-1.07412 -7.35223,-4.11978 -7.35223,-8.33481c0,-4.39963 3.70299,-7.2212 7.16302,-9.17506c3.13666,-0.90979 5.53672,-1.87323 8.7081,-1.63421z"/><path d="M244.61969,189.84878c-0.05017,-0.07525 -0.07765,-0.14597 -0.08901,-0.21132c-1.76769,1.8104 -8.15437,1.10885 -8.18048,-2.36537c-0.05841,0.01304 -0.11696,0.0258 -0.17567,0.03824l0.03206,0.08815l-0.77483,0.28176c-0.05634,0.02199 -0.11764,0.03406 -0.18176,0.03406c-0.27614,0 -0.5,-0.22386 -0.5,-0.5c0,-0.11012 0.0356,-0.21192 0.09592,-0.29453l0.46111,-0.64853c0.49518,-0.99318 1.03491,-2.33401 1.80371,-3.12478c0,0 0.35355,-0.35355 0.70711,0c0.35355,0.35355 0,0.70711 0,0.70711c-0.52958,0.5085 -0.95099,1.41662 -1.31336,2.20794c2.15227,-1.23581 7.25893,-1.07739 8.33315,0.53996c0.04903,0.07382 -0.46385,-1.11548 -0.64974,-1.86247c-0.04589,-0.32353 -0.11385,-0.64478 -0.20437,-0.95876l-0.01924,-0.35165c0,0 0,-0.5 0.5,-0.5v-0.00001c0.5,0 0.5,0.5 0.5,0.5l-0.01924,0.07693c0.09682,0.34158 0.17365,0.68983 0.2242,1.04124c0.06047,0.24068 0.21871,0.7476 0.32564,1.29133c0.01338,-0.01623 0.02815,-0.0325 0.04442,-0.04877c0.35355,-0.35355 0.70711,0 0.70711,0c2.12939,2.13393 6.62705,-0.21463 5.41572,-3.34707l-0.25672,-0.37917c0,0 -0.27735,-0.41603 0.13868,-0.69338c0.41603,-0.27735 0.69338,0.13868 0.69338,0.13868l0.3147,0.47797c1.49842,4.07325 -3.95004,7.46126 -6.95919,4.5627c0.0351,0.5472 -0.05247,1.02794 -0.4246,1.19314c-0.07323,0.03251 -0.21989,0.0004 -0.41128,-0.0715c0.25011,0.53665 0.27811,1.00127 0.13958,1.39253l0.07598,-0.05065c0.6948,-0.44359 1.46576,-0.54767 2.28241,-0.65098c1.65216,-0.20552 3.45837,2.17474 4.98562,1.61979c0.53857,-0.1957 0.06683,-3.43616 0.01238,-3.92614c0,0 -0.05522,-0.49694 0.44173,-0.55216c0.49694,-0.05522 0.55216,0.44173 0.55216,0.44173c0.07185,0.64671 0.14538,1.26088 0.14592,1.91236c0.00045,0.54816 0.04549,1.12906 -0.00097,1.67393c-0.30548,3.58255 -4.50612,-0.43391 -6.0041,-0.17835c-0.62887,0.07758 -1.34396,0.12423 -1.86045,0.49188l-0.21429,0.14286c0,0 -0.41603,0.27735 -0.69338,-0.13868zM242.96788,186.92498l-0.07143,-0.07143c0,0 -0.05629,-0.05629 -0.10149,-0.14641c-0.23388,-0.11073 -0.4321,-0.19183 -0.56197,-0.21502c-1.79274,-0.32014 -3.31809,0.12605 -4.88339,0.53418c-0.58939,3.10704 9.76691,4.01319 5.61828,-0.10132z"/><path d="M230.70786,188.45687c-0.44838,-0.06405 -1.71329,-0.09431 -1.89859,-0.60819c-0.32719,-0.9074 1.75855,-2.20424 2.31024,-2.57106c0.9958,-0.85599 1.35259,-1.49695 1.16409,-2.81645l-0.11212,-0.24216c0,0 -0.1857,-0.46424 0.27854,-0.64993v0.00001c0.46424,-0.1857 0.64993,0.27854 0.64993,0.27854l0.17359,0.47213c0.24137,1.6896 -0.27725,2.66677 -1.5502,3.75498c-0.16044,0.10722 -1.30851,0.97041 -1.77711,1.30125c0.40674,-0.03596 1.29479,0.14659 1.40304,0.16236c1.60332,0.23356 3.05634,1.4377 4.715,1.42355c0,0 0.5,0 0.5,0.5c0,0.5 -0.5,0.5 -0.5,0.5c-0.70633,-0.00472 -3.47102,-1.07384 -3.51658,-1.01255c-0.10294,-0.03126 -1.7266,-0.47631 -1.83983,-0.49248z"/><path d="M240.14568,200.16437c-0.32559,0.02076 -4.32559,0.04919 -5.82932,-0.26922c-0.35735,-0.10353 1.88188,-0.40454 3.2397,-0.05787c0.82966,0.05503 0.47427,-0.07204 0.96416,-0.08053c0.465,-0.00805 1.39504,-1.30704 1.56667,-1.4181c0.44321,-0.51112 3.09904,-2.29552 2.92371,-3.09637c-0.12527,-0.5722 -1.15844,-0.28739 -1.64879,-0.60781c-1.26095,-0.82397 -2.60321,-1.39512 -3.83344,-2.27948c0,0 -0.40594,-0.29192 -0.11402,-0.69785c0.29192,-0.40594 0.69785,-0.11402 0.69785,-0.11402c1.30487,0.93871 2.826,1.82576 4.26658,2.5272c0.06443,0.03137 1.46982,0.61465 1.48365,0.64814c0.65654,1.58976 -1.96472,3.22571 -2.97965,4.22824c1.09219,-0.0782 2.60371,0.12512 3.24898,0.12384c2.88692,-0.00576 4.43851,-0.70817 5.68703,-3.0466c0.14672,-0.42764 0.68255,-1.06753 0.74327,-1.4651l-0.15096,0.0967c-0.4837,0.24176 -0.96305,0.46156 -1.43,0.73468c0,0 -0.43189,0.25194 -0.68382,-0.17995c-0.25194,-0.43189 0.17995,-0.68382 0.17995,-0.68382c0.34434,-0.20038 0.69413,-0.37452 1.04749,-0.54838c-1.37032,-0.36732 -2.80225,-0.57506 -4.14169,-1.16814v0.00001c-0.12524,-0.0068 -0.45764,-0.0631 -0.48285,-0.46744c-0.03112,-0.49903 0.46791,-0.53015 0.46791,-0.53015l0.32348,0.03971c1.36846,0.63036 4.56631,0.80109 5.54262,1.86941c0.33068,0.36184 -0.35007,2.27393 -0.49865,2.70195c-0.34756,0.65417 -0.57411,1.69513 -1.07924,2.23886c-1.02725,1.10572 -4.43716,1.33799 -6.93974,1.35103c-0.10281,0.12165 -2.1293,0.1229 -2.57088,0.15106z"/><path d="M239.26877,172.04887c-0.31469,0.11195 -0.71936,0.12749 -1.15241,0.07509c0.26475,0.19417 0.53411,0.34955 0.81976,0.43176c0.09044,-0.06437 0.16763,-0.15026 0.22852,-0.26022c0.04634,-0.08369 0.08067,-0.16597 0.10413,-0.24663zM235.18092,170.27926c0.08721,-0.11436 0.25307,-0.2152 0.51407,-0.29488c0.00396,-0.01053 0.00809,-0.02093 0.01238,-0.0312c-0.28846,0.00456 -0.49968,0.06683 -0.53791,0.21799c0.00111,0.03512 0.00498,0.0712 0.01146,0.10809zM237.95749,169.40012c1.34237,0.33508 2.70677,1.36594 2.38526,2.70284c0.09663,-0.04212 0.22119,-0.05313 0.37722,0.00928c0.46424,0.1857 0.27854,0.64993 0.27854,0.64993l-0.35311,0.54271c-0.58618,0.29309 -1.1077,0.36859 -1.59078,0.29706c-1.92111,0.68929 -4.87754,-1.8632 -4.85319,-3.68163c0.72196,-1.14531 2.51976,-1.18644 3.75606,-0.5202zM235.89361,171.3659c-0.02581,-0.01544 -0.05117,-0.03097 -0.07603,-0.0466c0.03399,0.03562 0.06896,0.07111 0.10484,0.10638c-0.00987,-0.02008 -0.01948,-0.04001 -0.02882,-0.05978zM237.59885,170.78083c0.19775,0.01164 0.39261,0.02787 0.56969,0.04983c-0.1163,-0.10729 -0.2277,-0.21521 -0.31898,-0.29736c-0.0525,0.13522 -0.15519,0.20818 -0.25071,0.24753z"/><path d="M250.4583,169.85859c0.02911,0.10937 0.05223,0.22106 0.06954,0.33433c0.14039,0.3526 0.12441,0.746 -0.0041,1.1046c-0.00904,0.05982 -0.01945,0.11942 -0.0312,0.1787c0.43769,-0.12277 0.69207,-0.34878 0.57393,-0.72759c-0.13653,-0.43777 -0.349,-0.72216 -0.60817,-0.89004zM248.89213,172.61517c-0.43391,-0.01662 -0.86564,-0.06474 -1.26167,-0.1334c0.05861,0.10448 0.13343,0.20377 0.22601,0.29543c0.39985,0.22248 0.75575,0.12025 1.03566,-0.16202zM247.57914,171.20312c0.32893,0.20816 0.66117,0.34475 1.12108,0.3007c0.16849,-0.01614 0.56491,-0.17256 0.8111,-0.38836c0.02635,-0.22956 0.02929,-0.46132 0.00583,-0.68175c-0.00899,-0.00663 -0.01832,-0.01325 -0.02798,-0.01986c-0.78808,-0.53898 -1.61029,0.0195 -1.91003,0.78927zM246.9151,173.13729c-0.00293,0.00122 -0.00589,0.00242 -0.00887,0.00362c-0.46424,0.1857 -0.64993,-0.27854 -0.64993,-0.27854l-0.08532,-0.22407c-0.18385,-0.34938 -0.28301,-0.61416 -0.31245,-0.87235c-1.89569,-2.28005 1.29445,-4.84689 3.61176,-3.33094c0.13388,0.08758 0.25452,0.18688 0.36246,0.29597c1.01191,-0.03547 1.89742,0.42928 2.2149,1.82452c0.29306,1.28793 -0.68781,1.85087 -1.95039,2.01343c-0.55899,1.0061 -1.57547,1.61735 -2.8255,1.0195c-0.14151,-0.14227 -0.25979,-0.29353 -0.35666,-0.45115zM248.40184,169.05451c-1.04961,-0.24629 -2.29771,0.44684 -2.15577,1.37495c0.50193,-0.50334 1.30292,-1.04194 2.15577,-1.37495z"/><path d="M240.49242,195.65496c0.0621,-0.02766 0.13087,-0.04303 0.20324,-0.04303c0.27614,0 0.5,0.22386 0.5,0.5c0,0.2647 -0.20569,0.48136 -0.46595,0.49886c-0.3756,0.86206 -1.4528,1.85373 -2.15084,1.84161c-0.76632,0.42672 -2.29935,-0.05043 -3.29543,-0.10011c-3.19023,-0.15911 -3.76015,-0.69564 -3.40323,-4.09858c0.07125,-0.67928 0.13061,-2.60305 1.06134,-2.7892c0.74197,-0.14839 1.98155,0.55583 2.79966,0.63684c0.32587,0.03227 3.42517,-0.1771 3.6097,0.14582l0.24623,0.43091c-0.12321,0.21561 -0.28111,0.3788 -0.46665,0.49891c-1.41215,0.91418 -4.42487,-0.667 -5.92158,-0.61711c-0.28986,0.00966 -0.65596,4.24863 -0.34705,4.4279c0.965,0.56001 3.94197,0.12693 5.36941,0.33726c-0.01894,-0.17597 -0.03532,-0.37856 -0.04857,-0.61024c-0.01098,-0.19202 -0.2257,-0.64769 -0.19138,-0.77355c-0.01034,-0.04005 -0.01584,-0.08205 -0.01584,-0.12534c0,-0.27614 0.22386,-0.5 0.5,-0.5c0.27614,0 0.5,0.22386 0.5,0.5c0,0.0055 -0.00009,0.01098 -0.00027,0.01644c0.07083,0.24596 0.08644,0.58144 0.06494,0.92634c0.56256,-0.60106 1.2324,-1.12603 1.45225,-1.10372z"/></g></g></svg>