<svg version="1.1" xmlns="http://www.w3.org/2000/svg" xmlns:xlink="http://www.w3.org/1999/xlink" width="30.99724" height="39.50037" viewBox="0,0,30.99724,39.50037"><g transform="translate(-224.55276,-161.02123)"><g data-paper-data="{&quot;isPaintingLayer&quot;:true}" fill="#ffffff" fill-rule="nonzero" stroke="none" stroke-width="0.5" stroke-linecap="butt" stroke-linejoin="miter" stroke-miterlimit="10" stroke-dasharray="" stroke-dashoffset="0" style="mix-blend-mode: normal"><path d="M236.74679,162.19287c0.00981,0.05929 0.00908,0.1273 -0.0065,0.20522c-0.09806,0.49029 -0.58835,0.39223 -0.58835,0.39223c-3.76736,-0.75347 -6.16832,0.61964 -9.02545,2.83874c-2.15935,3.71435 -2.07847,6.9625 0.05226,10.51372c0.51648,0.86079 1.57293,2.60948 2.53676,2.98543c0.80178,0.31275 1.14575,0.27111 1.98146,0.60545c0.81395,0.32564 1.99963,0.70247 2.86791,0.97974c0.7893,0.25205 1.65279,-0.13511 2.47968,0.19564c4.09569,-0.09114 8.21656,-0.30902 12.30544,-0.30902c4.10137,0 5.2,-5.33345 5.2,-8.6c0.08793,-3.95156 -3.57997,-6.65657 -6.7857,-7.93576c-1.07538,-0.4336 -1.98866,-1.17829 -3.07658,-1.59131c-2.21233,-0.8399 -5.47199,-0.34691 -7.94094,-0.2801zM234.35983,161.58524c0.06999,-0.38519 0.49017,-0.38519 0.49017,-0.38519c0.33334,0 1.06667,0 1.4,0c2.68687,0 6.20872,-0.57074 8.76227,0.32707c1.11558,0.39223 2.03286,1.17652 3.12342,1.6087c3.68918,1.47897 7.34755,4.4645 7.41431,8.86424c0,3.85441 -1.46105,9.6 -6.2,9.6c-4.17977,0 -8.29617,0.35469 -12.49455,0.29098c-0.83834,-0.33533 -1.68876,0.04485 -2.52032,-0.20436c-0.94785,-0.28405 -2.1582,-0.68415 -2.99876,-1.02027c-0.80146,-0.32049 -1.14933,-0.26921 -1.95187,-0.59454c-1.21849,-0.49394 -2.41569,-2.33531 -3.06324,-3.41456c-2.33683,-3.89471 -2.3966,-7.68541 0.05226,-11.68628c2.54102,-2.07745 4.91732,-3.44593 7.98631,-3.38578z"/><path d="M231.9,181.50012c0.5,0 0.5,0.5 0.5,0.5l-0.00386,0.20465c0.05499,0.74679 0.67269,0.81184 0.44936,1.7393c-0.73055,3.03388 -8.21262,1.52248 -5.19627,-2.26405c0,0 0.25404,-0.30485 0.58106,-0.14507c-0.00192,-0.13253 -0.01029,-0.26885 -0.02723,-0.41296c0,0 -0.05522,-0.49694 0.44173,-0.55216c0.49694,-0.05522 0.55216,0.44173 0.55216,0.44173c0.0672,0.63485 0.01119,1.15459 -0.06747,1.7839l-0.07773,0.32592c0,0 -0.12127,0.48507 -0.60634,0.3638c-0.48507,-0.12127 -0.3638,-0.60634 -0.3638,-0.60634l0.04408,-0.16443c-1.11243,1.91806 3.19045,2.5493 3.76217,0.94174c0.05924,-0.16657 -0.44883,-1.10116 -0.48398,-1.32736l-0.00386,-0.32868c0,0 0,-0.5 0.5,-0.5z"/><path d="M250.48932,186.78409c0.41603,-0.27735 0.69338,0.13868 0.69338,0.13868l0.17688,0.28039c0.3211,0.7553 0.37622,1.14554 0.24584,1.9701c-1.98279,1.80509 -3.76706,0.80494 -6.21267,0.24856c-2.08529,-0.47441 -4.58882,-0.1306 -6.73006,-0.25642c-2.70346,-0.24554 -5.24603,-0.21782 -7.86967,0.45002c-0.53844,0.13706 -1.67974,0.71095 -2.04587,-0.29859c-0.14724,-0.40599 1.38798,-2.57567 1.45534,-3.29979c0,0 0.04975,-0.49752 0.54727,-0.44777c0.49752,0.04975 0.44777,0.54727 0.44777,0.54727c-0.026,0.24583 -0.52207,2.07619 -1.0144,2.75916c0.82093,-0.29872 2.46426,-0.8105 2.72697,-0.83904c1.87769,-0.20397 3.95134,-0.03918 5.82723,0.13152c2.20487,0.12985 4.71576,-0.19236 6.86994,0.27691c1.89421,0.41264 3.58569,1.3713 5.12066,0.24856c0.00994,-0.41443 -0.12388,-0.71837 -0.2875,-1.09657l-0.08979,-0.11961c0,0 -0.27735,-0.41603 0.13868,-0.69338z"/><path d="M239.9,192.50012c-0.5,0 -0.5,-0.5 -0.5,-0.5l0.00386,-0.00465c-0.18016,-1.8041 -4.28507,-0.94266 -5.64089,-0.766c-0.4503,0.05867 -1.15954,0.15824 -1.62423,0.25941c-0.32892,0.07161 -1.03717,-0.13541 -1.14074,0.05728l0.27981,0.32645c0.07612,0.08773 0.12219,0.20224 0.12219,0.32751c0,0.27614 -0.22386,0.5 -0.5,0.5c-0.12295,0 -0.23554,-0.04438 -0.32261,-0.11799l-0.39748,-0.33123c0,0 -0.38411,-0.32009 -0.06402,-0.7042c0.04627,-0.05553 0.09388,-0.09634 0.14147,-0.12553c-0.02103,-0.20995 0.02582,-0.44133 0.14199,-0.55389c0.32058,-0.31062 1.83821,-0.42207 2.28723,-0.49403c2.16986,-0.34777 7.2868,-1.47642 7.70956,1.49819l0.00386,0.12868c0,0 0,0.5 -0.5,0.5z"/><path d="M239.43333,193.70012c0.5,0 0.5,0.5 0.5,0.5l-0.04043,0.46363c-1.13185,2.49529 -6.63508,2.42789 -8.44633,0.92048c0,0 -0.31359,-0.26132 -0.13796,-0.59507c-0.17981,-0.25503 -0.2682,-0.57906 -0.23808,-0.98439c0,0 0.06202,-0.49614 0.55816,-0.43412c0.49614,0.06202 0.43412,0.55816 0.43412,0.55816c-0.21803,0.93998 1.15393,0.57081 1.77053,0.57132c1.59873,0.00132 3.29687,-0.20742 4.68526,-1.00079l-0.03462,-0.04323c0,0 0.27735,-0.41603 0.69338,-0.13868c0.08693,0.05795 0.14358,0.12196 0.17882,0.18696c0.0243,-0.00279 0.04999,-0.00427 0.07716,-0.00427zM235.52623,195.63745c1.26579,0.00344 2.51792,-0.25365 3.13867,-0.89438c-0.7202,0.3245 -1.91097,0.68829 -3.13867,0.89438z"/><path d="M248.42851,193.65445c0.15811,0.47434 -0.31623,0.63246 -0.31623,0.63246l-0.87821,0.0431c-0.26667,-0.22222 -0.53333,-0.44444 -0.8,-0.66667c0,0 -0.38411,-0.32009 -0.06402,-0.7042c0.32009,-0.38411 0.7042,-0.06402 0.7042,-0.06402c0.26667,0.22222 0.53333,0.44444 0.8,0.66667l-0.07821,-0.22356c0,0 0.47434,-0.15811 0.63246,0.31623z" data-paper-data="{&quot;index&quot;:null}"/><path d="M249.76928,191.64071c-1.12792,-0.32805 -2.59611,0.19163 -3.80262,0.19269c-0.23508,0.00021 -2.22567,-0.10705 -1.54657,0.18256c0,0 0.38411,0.32009 0.06402,0.7042c-0.32009,0.38411 -0.7042,0.06402 -0.7042,0.06402c-2.12516,-2.15217 5.11294,-2.47829 6.41154,-2.05845l0.26211,0.18745c0,0 0.01902,0.01902 0.04383,0.05266c0.04943,-0.13726 0.19016,-0.38586 0.55148,-0.32564c0.4932,0.0822 0.411,0.5754 0.411,0.5754l-0.0917,0.49336c-0.43178,1.15141 -0.32433,1.89299 -0.17203,3.09575c0,0 0.06202,0.49614 -0.43412,0.55816c-0.49614,0.06202 -0.55816,-0.43412 -0.55816,-0.43412c-0.15055,-1.22217 -0.24252,-2.08231 0.1004,-3.19774c-0.2452,0.12347 -0.46531,-0.03197 -0.53498,-0.0903z"/><path d="M244.89136,196.09694c-0.22498,0.20718 -0.38775,0.4225 -0.31155,0.62912c0.47251,1.28133 4.42055,1.61221 5.1095,0.65549c1.06824,-1.70499 -3.42464,-1.44967 -4.19395,-1.35202l-0.10508,0.08441c0,0 -0.27289,0.13644 -0.49892,-0.017zM245.65844,195.0067c2.00404,-0.1827 6.45643,-0.0034 4.85226,2.9452c-1.23661,1.392 -6.28749,1.37255 -6.8905,-0.94451c-0.21617,-0.83062 1.07151,-1.7474 0.64568,-2.4926c0,0 -0.24807,-0.43412 0.18605,-0.68219c0.43412,-0.24807 0.68219,0.18605 0.68219,0.18605c0.10484,0.18347 0.39163,0.65942 0.52432,0.98805z"/><path d="M244.36667,199.98337c-0.25,0 -0.25,-0.25 -0.25,-0.25c0,-0.08889 0,-0.44444 0,-0.53333c0,0 0,-0.25 0.25,-0.25c0.25,0 0.25,0.25 0.25,0.25c0,0.08889 0,0.17778 0,0.26667v0.26667c0,0 0,0.25 -0.25,0.25z"/><path d="M250.54514,200.49031c-0.22361,0.1118 -0.33541,-0.1118 -0.33541,-0.1118l-0.09306,-0.24514c0,-0.31111 0,-0.62222 0,-0.93333c0,0 0,-0.25 0.25,-0.25c0.25,0 0.25,0.25 0.25,0.25c0,0.31111 0,0.62222 0,0.93333l0.04027,0.02153c0,0 0.1118,0.22361 -0.1118,0.33541z"/><path d="M255.03125,185.06252c0,2.20683 -1.96784,3.29277 -3.40687,1.29062l-0.07526,-0.38636c-0.69556,-0.45778 -0.95487,-2.07868 -1.28728,-2.82619c0,0 -0.20307,-0.45691 0.25384,-0.65998c0.45691,-0.20307 0.65998,0.25384 0.65998,0.25384c0.1272,0.28636 0.77567,2.34205 0.85943,2.36613c2.21938,0.63794 1.64444,-1.58106 1.278,-2.55l-0.14808,-0.23081c0,0 -0.25725,-0.42874 0.17149,-0.68599c0.42874,-0.25725 0.68599,0.17149 0.68599,0.17149l0.22692,0.39419c0.24504,0.65994 0.90476,1.75962 0.68127,2.4919c-0.00398,0.01304 -0.00851,0.02609 -0.01359,0.03915c0.11415,0.14524 0.11415,0.33201 0.11415,0.33201zM252.63943,186.02599c0.6692,0.74546 1.20892,0.35443 1.35359,-0.48873c-0.41822,0.2198 -0.91278,0.39706 -1.35359,0.48873z"/><path d="M237.15625,192.875c0,0.46304 -0.42882,0.49727 -0.49221,0.4998c-0.83526,0.47427 -1.39824,0.74616 -2.37085,0.40587c0,0 -0.46816,-0.17556 -0.2926,-0.64373c0.17556,-0.46816 0.64373,-0.2926 0.64373,-0.2926c0.67081,0.27872 1.03557,-0.0584 1.63887,-0.40346l0.37307,-0.06588c0,0 0.5,0 0.5,0.5z"/></g></g></svg>