<svg version="1.1" xmlns="http://www.w3.org/2000/svg" xmlns:xlink="http://www.w3.org/1999/xlink" width="36.30183" height="39.20856" viewBox="0,0,36.30183,39.20856"><g transform="translate(-221.84912,-160.32646)"><g data-paper-data="{&quot;isPaintingLayer&quot;:true}" fill="#ffffff" fill-rule="nonzero" stroke="none" stroke-width="0.5" stroke-linecap="butt" stroke-linejoin="miter" stroke-miterlimit="10" stroke-dasharray="" stroke-dashoffset="0" style="mix-blend-mode: normal"><path d="M236.25205,164.69955c0.47434,0.15812 0.31623,0.63246 0.31623,0.63246l-0.17482,0.42696c-1.40939,1.75171 -2.86084,2.45141 -5.20862,2.46037c0,0 -0.5,0 -0.5,-0.5c0,-0.5 0.5,-0.5 0.5,-0.5c2.05796,0.00913 3.22486,-0.57394 4.42775,-2.08508l0.007,-0.11849c0,0 0.15811,-0.47435 0.63245,-0.31623z"/><path d="M235.47389,170.31482c0.02539,-0.01371 0.05176,-0.02735 0.07914,-0.04092c-0.07358,-0.23665 -0.08892,-0.47403 -0.02242,-0.69002c-0.44918,-0.01958 -0.74397,0.01226 -0.63729,0.07208c0.10564,0.14735 0.31156,0.38543 0.58058,0.65886zM237.21666,170.76944c0.10184,0.04912 0.21025,0.08228 0.32106,0.10962c0.20895,-0.07234 0.38255,-0.15527 0.47636,-0.24543c-0.069,0.02764 -0.12216,0.03524 -0.12216,0.03524c-0.20093,0.02831 -0.4044,0.04233 -0.6028,0.08494c-0.02453,0.00527 -0.04869,0.01048 -0.07246,0.01564zM238.72792,169.57524c1.10855,0.73227 1.99545,1.85698 1.44696,2.73654c-1.12309,1.80098 -3.38261,0.53118 -4.89167,-0.81127c-0.06746,-0.05141 -0.12671,-0.105 -0.17632,-0.16028c-0.47087,-0.43736 -0.85425,-0.86979 -1.08506,-1.19385c-0.54165,-2.20336 3.50911,-1.92926 4.7061,-0.57113zM237.98294,172.01716c-0.06142,0.01449 -0.12426,0.02669 -0.18824,0.03669c0.46915,0.20125 0.9061,0.25809 1.23237,0.05366l-0.11495,0.02093c-0.31132,-0.00302 -0.6251,-0.03964 -0.92918,-0.11128zM239.09326,170.91265c-0.0082,0.06384 -0.02022,0.12471 -0.03581,0.18268l0.1726,-0.03931c-0.04001,-0.04903 -0.08589,-0.09686 -0.13679,-0.14337z"/><path d="M250.04951,169.54034c0.04789,0.16245 0.08491,0.32789 0.11228,0.49543c0.02056,0.01737 0.03852,0.03594 0.05421,0.05529c0.22634,-0.11417 0.31728,-0.22759 0.18085,-0.30218c-0.1206,-0.0984 -0.23504,-0.18024 -0.34734,-0.24854zM249.17486,171.57813c-0.42583,0.08348 -0.91547,0.10842 -1.40551,0.07031c0.35446,0.76911 0.89617,1.18482 1.39455,0.06779c0.00653,-0.04139 0.01012,-0.08763 0.01095,-0.1381zM248.82807,170.05731c-0.11834,-0.31462 -0.26029,-0.62607 -0.41516,-0.89629c-0.21326,-0.02617 -0.42541,-0.06348 -0.63802,-0.09672c-0.00959,0.00743 -0.01908,0.01506 -0.02845,0.02291c0.2623,0.00316 0.41261,0.25367 0.41261,0.25367c0.06663,0.11569 0.42474,0.63122 0.66902,0.71643zM246.53367,171.40369c-1.14049,-0.38873 -1.91838,-1.22138 -1.25057,-2.57463c0.20251,-0.41037 0.57851,-0.65896 1.0477,-0.78861c0.53836,-0.59311 1.4267,-0.70456 2.1733,-0.40365c0.45682,0.00258 0.77607,0.27304 0.97312,0.66326c0.68547,0.21671 1.27143,0.49507 1.58656,0.74368c0.87749,1.04233 0.23862,1.84052 -0.85576,2.22969c-0.0179,0.25169 -0.05018,0.50329 -0.09312,0.75205c-1.24526,2.35049 -2.99025,1.13793 -3.58122,-0.62178zM247.37844,169.9773c-0.00021,0.11812 0.00901,0.24834 0.0266,0.38526c0.09529,0.0357 0.19876,0.06331 0.30809,0.08376c-0.10801,-0.1347 -0.21964,-0.29045 -0.33469,-0.46902z"/><path d="M236.46431,184.64286c-0.01394,0 -0.02749,-0.00039 -0.04066,-0.00114c-0.08623,0.06898 -0.17159,0.09743 -0.17159,0.09743l-0.1736,0.04531c-2.6647,1.57001 -5.05313,4.84963 -8.14587,4.08268l-0.25141,0.57215c-3.35875,1.6026 -8.64404,-2.773 -4.01657,-4.49394c-0.12689,-0.59131 -0.03813,-1.20628 0.39624,-1.80305c0.79658,-1.09439 4.33556,-1.95023 5.6032,-2.67526c0,0 0.43412,-0.24807 0.6822,0.18605c0.24807,0.43412 -0.18606,0.68219 -0.18606,0.68219c-2.62036,1.49591 -8.23359,2.69815 -3.50473,5.79407c3.43789,2.60923 6.21251,-1.56147 8.90851,-3.20239l0.37186,-0.1365c0,0 0.01217,-0.00406 0.03326,-0.00892c-0.01551,-0.21246 -0.12569,-0.43182 -0.28691,-0.57084c0,0 -0.35355,-0.35355 0,-0.70711c0.35355,-0.35355 0.70711,0 0.70711,0c0.28857,0.3118 0.4937,0.72205 0.56999,1.13999l0.00503,0.49928c0,0 0,0.5 -0.5,0.5zM226.9828,188.65587c0.01119,-0.0382 0.02736,-0.0799 0.05069,-0.12071c-0.31089,-0.15238 -0.62914,-0.34716 -0.95562,-0.58946c-0.71016,-0.48064 -1.54782,-1.22233 -2.04148,-2.0731c-3.21606,1.14402 0.84766,3.53876 2.94642,2.78328z"/><path d="M250.78202,181.54761c0.35355,-0.35355 0.70711,0 0.70711,0l0.17699,0.21328c0.05517,0.11604 0.10411,0.2323 0.14706,0.34858c0.31202,0.61993 0.68387,1.50527 1.00139,2.46785c0.07976,-0.05382 0.17588,-0.08524 0.27934,-0.08524c0.23193,0 0.42698,0.15792 0.48349,0.3721c0.30949,-0.97641 0.89018,-1.88897 1.69185,-2.32986c-0.88305,-0.40105 -1.77405,-0.79187 -2.61441,-1.29532l-0.1736,-0.04531c0,0 -0.39552,-0.13184 -0.34383,-0.51592c-4.86525,2.01619 -10.04313,0.98473 -15.28035,0.98473c-5.86346,-1.15001 -10.55488,-1.6298 -13.42366,-7.44641c-1.16424,-5.63683 3.522,-10.76505 8.89123,-11.86528c2.13553,-0.80083 4.7918,-1.82344 7.11668,-1.51012c0.10097,-0.22395 0.36695,-0.27715 0.36695,-0.27715c5.49679,-1.07679 9.21222,1.65916 12.81291,5.27821c3.05495,4.26387 5.3489,10.74038 0.43691,14.41518c-0.03231,0.0162 -0.06463,0.03225 -0.09697,0.04815l0.20824,0.07643c1.52634,0.9173 3.21381,1.45694 4.72727,2.36363c0,0 0.28465,0.17079 0.25092,0.46598c0.01324,0.1025 -0.00995,0.22272 -0.10816,0.35368c-0.03317,0.04423 -0.06757,0.0799 -0.10252,0.10837l0.00732,0.02221c0.36229,2.51702 -1.6139,4.4666 -3.70988,3.04458c-0.06882,0.109 -0.19213,0.20666 -0.41311,0.20666c-0.28215,0 -0.40508,-0.15922 -0.45864,-0.29796c0.45301,2.39011 0.10487,4.45472 -2.70822,3.45111c-0.61651,-0.21995 -1.20913,-0.40823 -1.76934,-0.74435c-0.97109,-0.33222 -1.87468,0.01454 -2.71564,0.51995l-0.39728,0.20029c0,0 -0.37973,0.18987 -0.61433,-0.13023c-0.18291,0.04468 -0.3639,0.09741 -0.54207,0.15736c-3.82701,1.26507 -9.02609,0.20534 -12.87668,-0.43569c0,0 -0.4932,-0.0822 -0.411,-0.5754c0.0822,-0.49319 0.5754,-0.411 0.5754,-0.411c3.66733,0.61194 8.75623,1.69825 12.39605,0.4734c0.28687,-0.09483 0.57957,-0.17432 0.87557,-0.23638c0.07351,-0.08541 0.18973,-0.15292 0.37345,-0.15292c0.15808,0 0.26619,0.04998 0.34011,0.11834c1.09123,-0.60377 2.1781,-0.84158 3.41428,-0.43622c0.59277,0.35566 2.34906,1.30671 3.05427,1.08322c0.45988,-0.14575 0.18633,-1.3117 0.15091,-1.55826c-0.14254,-0.99232 -0.36742,-2.10095 -0.6903,-3.16674c-0.94331,2.61986 -4.46084,4.23791 -6.65593,1.65838c0,0 -0.31235,-0.39043 0.07809,-0.70278c0.39043,-0.31235 0.70278,0.07809 0.70278,0.07809c1.84788,2.57444 6.0146,-0.42143 5.00192,-3.24374c-0.06271,-0.12121 -0.12733,-0.23964 -0.19389,-0.35493c0,0 -0.01244,-0.02177 -0.02687,-0.05835c-0.08282,-0.12162 -0.19809,-0.3779 0.05819,-0.63419zM256.97094,183.92513l-0.16954,-0.50222c0,0 -0.0139,-0.04172 -0.02109,-0.10453c-1.31053,-0.46276 -2.10286,1.03878 -2.36349,2.28909c1.52207,1.47754 2.80363,0.08128 2.55412,-1.68234zM253.09393,185.49207c-0.00077,0 -0.00154,0 -0.00231,-0.00001c0.08687,0.31616 0.16464,0.63423 0.22959,0.9481c0.00053,-0.34993 0.04364,-0.72223 0.12664,-1.09491c-0.09051,0.0907 -0.21566,0.14682 -0.35392,0.14682zM240.60834,161.43623c0.04147,0.10314 0.04813,0.23539 -0.03256,0.39676c-0.2236,0.44721 -0.67082,0.22361 -0.67082,0.22361l-0.31889,-0.17915c-2.20457,-0.45171 -4.93238,0.6645 -6.98691,1.43494c-4.8126,0.93664 -9.19102,5.49963 -8.21988,10.57916c2.7478,5.40724 7.08772,5.65399 12.57634,6.77581c5.30795,0 10.69162,1.17491 15.57676,-1.26109c4.33665,-3.26337 1.98694,-9.17968 -0.6742,-12.91815c-3.20801,-3.18946 -6.46114,-5.77977 -11.24983,-5.05191z"/><path d="M251.72503,191.28334c0.3,-0.4 0.7,-0.1 0.7,-0.1l0.42377,0.33765c2.93982,3.77399 -0.61804,7.80167 -5.05711,7.81235c-0.60104,-0.00107 -0.77129,0.03126 -1.35428,-0.09433c-0.31909,-0.06874 -0.57907,-0.15202 -0.78815,-0.24795c-0.26631,-0.12219 -3.20302,0.68236 -3.32107,0.52296c-0.10224,-0.13804 1.45613,-0.48329 2.20328,-0.74892c0.34881,-0.12401 0.37432,-0.79956 0.38299,-0.87861c0.13108,-1.19524 1.91198,-2.83007 1.47394,-4.02161c-0.23255,-0.63256 -1.461,-1.43975 -1.95026,-1.92799c0,0 -0.35356,-0.35355 0,-0.7071c0.35356,-0.35356 0.7071,0 0.7071,0c0.60881,0.61018 2.00481,1.53318 2.21641,2.40534c0.54903,2.26295 -3.51299,4.70607 0.43004,4.69821c3.62685,0.00988 6.75918,-3.14494 4.27624,-6.18766l-0.2429,-0.16234c0,0 -0.4,-0.3 -0.1,-0.7z"/><path d="M252.2917,193.33334c0,0.5 -0.5,0.5 -0.5,0.5h-0.16666c-0.50481,-0.00188 -0.8629,0.063 -1.34188,0.22434c0,0 -0.47434,0.15811 -0.63246,-0.31623c-0.15812,-0.47434 0.31623,-0.63245 0.31623,-0.63245c0.57541,-0.19008 1.05222,-0.27375 1.65812,-0.27566h0.16666c0,0 0.5,0 0.5,0.5z"/><path d="M239.13719,191.47132c0,0 0.06202,-0.49614 0.55816,-0.43412c0.49614,0.06202 0.43412,0.55816 0.43412,0.55816c-0.09158,0.72323 -0.18503,1.14942 -0.64536,1.72474l-0.16389,0.16679c0,0 -0.06208,0.06208 -0.16022,0.1082c-1.25134,1.57964 -3.97709,3.94818 -5.85053,3.73393c-0.45133,-0.05162 -0.94478,-0.21112 -1.44592,-0.42205c-0.15352,-0.06462 -1.61086,-1.11334 -1.68546,-0.86849c-0.15651,0.51367 0.93406,1.76374 0.62253,1.5981c-0.46434,-0.24688 -1.26098,-1.9127 -1.64918,-2.10603c-1.11239,-0.56203 -2.40113,-0.6735 -3.6086,-0.87068l-0.00114,0.0068c0,0 -0.16213,0 -0.30174,-0.09232c-0.02717,0.12626 -0.0222,0.27875 0.0344,0.46235c0.1647,0.53429 2.49199,2.71954 2.38005,2.95636c-0.09106,0.19265 -2.393,-2.23691 -2.60544,-2.83297c-0.19481,-0.54658 -0.17393,-1.16008 -0.17393,-1.16008c0.01314,-1.34933 0.81234,-2.22018 1.80972,-3.03678c0.02967,-0.07847 0.08002,-0.13996 0.13021,-0.18571c0.06779,-0.08758 0.19962,-0.21255 0.39551,-0.20353l0.16158,-0.06696c0.74645,-0.63697 1.42715,-0.86864 2.21319,-1.34115c0,0 0.27139,-0.15508 0.50763,-0.00543c0.2391,-0.03555 0.42732,0.15267 0.42732,0.15267c0.35423,0.3549 0.72671,0.66879 1.10771,0.99391l0.40237,0.16673c0,0 0.45957,0.19696 0.26261,0.65653c-0.19696,0.45958 -0.65653,0.26261 -0.65653,0.26261l-0.53097,-0.23326c-0.41207,-0.33726 -0.80769,-0.66753 -1.1876,-1.03638c-0.75903,0.40893 -1.28668,0.63357 -2.0232,1.23638l-0.38384,0.16862l-0.07339,0.11216c-0.71581,0.57088 -1.42466,1.17261 -1.54473,2.06391c1.25737,0.20595 2.54357,0.35571 3.70599,0.93178c1.13873,0.57189 2.59112,1.45789 3.84196,1.70153c0.36226,0.07056 0.81714,-0.05105 1.30761,-0.29071c-0.74338,-0.11395 -1.22616,-0.29488 -1.81006,-0.86006c0,0 -0.35356,-0.35355 0,-0.7071c0.35356,-0.35356 0.7071,0 0.7071,0c0.46183,0.484 0.79883,0.52871 1.45847,0.60742l0.32825,0.13226c0,0 0.17705,0.08852 0.25265,0.26557c1.26214,-0.87945 2.52627,-2.19674 2.94105,-2.84571c0,0 0.10394,-0.1559 0.27999,-0.21321c0.16999,-0.28329 0.18053,-0.54071 0.23154,-0.95479z"/></g></g></svg>