<svg version="1.1" xmlns="http://www.w3.org/2000/svg" xmlns:xlink="http://www.w3.org/1999/xlink" width="31.40227" height="39.44469" viewBox="0,0,31.40227,39.44469"><g transform="translate(-224.51467,-160.81614)"><g data-paper-data="{&quot;isPaintingLayer&quot;:true}" fill="#ffffff" fill-rule="nonzero" stroke="none" stroke-width="0.5" stroke-linecap="butt" stroke-linejoin="miter" stroke-miterlimit="10" stroke-dasharray="" stroke-dashoffset="0" style="mix-blend-mode: normal"><path d="M233.66667,163.06668c0,-0.28228 0.15936,-0.4052 0.29815,-0.45872c-2.24811,-0.15426 -4.80715,0.64876 -6.2754,1.90726c-3.06626,2.53315 -2.22949,7.10886 -1.52306,10.43782c2.12239,3.63106 4.63993,5.54453 8.94893,6.02039c3.50928,0.77595 8.28561,0.91461 11.79677,0.00817c4.435,-1.07989 6.77926,-1.10748 7.35805,-6.37355c0.5344,-4.27597 -0.66398,-6.62763 -3.90088,-9.38349c-3.38779,-1.47357 -6.49375,-4.19867 -10.44294,-3.21739c-0.95513,0.4128 -1.86683,0.83776 -2.81159,1.13961c-0.19902,0.30934 -0.49993,0.22449 -0.61538,0.17644c-0.59686,0.15043 -1.21278,0.24233 -1.86599,0.24345h-0.46667c0,0 -0.5,0 -0.5,-0.5zM236.62055,162.26089c1.01066,-0.29871 1.9725,-0.77009 2.98649,-1.20138c4.27951,-1.07493 7.62945,1.66184 11.29039,3.31594c3.56671,2.92368 4.94427,5.72282 4.36578,10.34984c-0.28683,2.55088 -0.99184,5.51659 -3.72308,6.54366c-1.38285,0.52001 -2.96906,0.31712 -4.38554,0.6828c-3.67834,0.89565 -8.53582,0.82769 -12.20323,0.00817c-4.6313,-0.51765 -7.49489,-2.6807 -9.71773,-6.64627c-0.86363,-3.7645 -1.58424,-8.71248 1.81028,-11.56218c2.2851,-1.95866 6.7109,-2.86994 9.57664,-1.49057z"/><path d="M250.66667,190.66668c0,0 0,-0.5 0.5,-0.5c0.5,0 0.5,0.5 0.5,0.5c-0.00156,1.13023 -0.17001,2.06033 -0.73254,3.04807l-0.05357,0.10887c0,0 -0.00033,0.00067 -0.001,0.00194c0.04889,0.81924 0.227,1.62696 0.36155,2.44416c0.92303,1.42648 0.6192,3.25946 -2.21334,3.95987c-1.79064,0.01014 -3.81355,0.3071 -5.16325,-1.15866c-0.51893,-0.56356 -0.78993,-1.12452 -0.86726,-1.65053c-0.17536,-0.17933 -0.12088,-0.45178 -0.12088,-0.45178l0.09739,-0.43224c0.4241,-0.98714 1.03304,-1.93982 1.16343,-2.99839c0,0 0.01874,-0.14988 0.11799,-0.27459l-0.0024,-0.03979c-0.35266,-0.70706 -0.74975,-1.36584 -1.26574,-1.96487c0,0 -0.3254,-0.37963 0.05423,-0.70503c0.37963,-0.32539 0.70503,0.05424 0.70503,0.05424c0.56746,0.66493 1.00951,1.38743 1.40092,2.16845l0.11443,0.61956c0,0 0.04138,0.2897 -0.1608,0.4575c-0.05265,0.30577 -0.13632,0.60148 -0.23915,0.89133c0.42185,-0.15759 0.88845,-0.24478 1.37165,-0.24478c0,0 0.15308,0 0.28983,0.0847c1.27269,-0.40687 2.53985,-0.12443 3.50283,0.49427c-0.08931,-0.55562 -0.15876,-1.11241 -0.15932,-1.67897c0,0 0,-0.40115 0.35931,-0.48482c0.3464,-0.71941 0.44196,-1.40899 0.44069,-2.24851zM250.40971,197.36474l-0.07251,-0.36937c-0.01927,-0.15422 -0.04126,-0.30779 -0.06495,-0.4609c-0.80383,-0.9236 -2.47886,-1.53445 -3.88197,-0.82057l-0.13672,0.17301c0,0 -0.35355,0.35356 -0.70711,0c-0.08817,-0.08817 -0.13236,-0.17633 -0.14903,-0.25901c-1.3852,0.43649 -2.16029,1.90632 -0.41186,3.09502c1.13998,0.77504 2.61451,0.50511 3.92002,0.51418c1.24774,-0.31698 1.77991,-0.88309 1.83786,-1.4847c-0.27176,-0.07778 -0.33373,-0.38765 -0.33373,-0.38765z"/><path d="M246.7259,192.80002c0,-0.5 0.5,-0.5 0.5,-0.5l0.93333,0.13333c0.14786,0.02565 -0.16914,0.43533 -0.00773,0.53672c0.10789,-0.1017 0.40656,-0.71868 0.69835,-0.51026c0.40687,0.29062 0.11625,0.69749 0.11625,0.69749l-0.32946,0.46124c-0.09031,0.12982 -0.2406,0.2148 -0.41074,0.2148c-0.27614,0 -0.5,-0.22386 -0.5,-0.5c0,-0.01751 0.0009,-0.03482 0.00266,-0.05187c-0.0119,0.0034 -0.02391,0.00947 -0.03599,0.01854h-0.46667c0,0 -0.5,0 -0.5,-0.5z" data-paper-data="{&quot;index&quot;:null}"/><path d="M239.43333,190.43334c0.5,0 0.5,0.5 0.5,0.5l-0.00248,0.31642c-0.35158,2.15923 -8.60144,2.39999 -9.06032,-0.2544c0,0 -0.06202,-0.49614 0.43412,-0.55816c0.49614,-0.06202 0.55816,0.43412 0.55816,0.43412c0.04731,1.55305 7.08893,0.89727 7.07301,0.27893l-0.00248,-0.21691c0,0 0,-0.5 0.5,-0.5z"/><path d="M252.35615,189.98187c-0.54458,0.46844 -4.57915,-0.95021 -5.58948,-0.94849c-1.58057,0 -2.97719,0.6924 -4.56098,0.59923c-2.91883,-0.1717 -5.32843,-1.00703 -8.3187,-0.73545c-0.7914,0.09815 -1.54287,0.45714 -2.32589,0.53247c-2.58802,0.24898 -1.83554,-1.92722 -1.03602,-4.03043c-1.3281,-1.32202 -2.36168,-2.30133 -1.18241,-4.19749c0,0 0.265,-0.424 0.689,-0.159c0.424,0.265 0.159,0.689 0.159,0.689c-0.78917,1.25568 -0.15712,1.84482 0.71479,2.65587c0.28448,-0.78731 0.49407,-1.50119 0.43174,-1.99219c0,0 -0.06202,-0.49614 0.43412,-0.55816c0.49614,-0.06202 0.55816,0.43412 0.55816,0.43412c0.20411,1.65572 -0.52241,3.16646 -1.24856,4.61823c-0.08837,0.17668 -0.79538,1.28253 -0.50227,1.48218c0.6982,0.47558 2.44794,-0.37405 3.20104,-0.46883c3.04212,-0.27683 5.52105,0.55708 8.4813,0.73121c1.5469,0.09099 2.94251,-0.60077 4.50568,-0.60077c1.11098,0.0017 2.87287,0.09045 3.91521,0.50092c0.38311,0.15087 0.87175,1.06461 1.02864,0.68392c0.38985,-0.94596 -0.7923,-2.88375 -1.02892,-3.83024l-0.01493,-0.2546c0,0 0.03446,-0.27297 0.20508,-0.39452c0.15167,-0.10805 0.43716,-0.00773 0.50231,0.04845c0.21006,0.18115 0.67745,1.58764 0.7851,1.74023c0.48869,1.24268 1.00993,2.75507 0.19699,3.45434z"/><path d="M253.97248,181.01493c0.48507,-0.12127 0.60634,0.3638 0.60634,0.3638l0.0625,0.25c0.2465,0.99302 0.3542,1.83037 1.11848,2.58021c0,0 0.35355,0.35355 0,0.70711c-0.02929,0.02929 -0.05858,0.05373 -0.08767,0.07392c1.04314,2.16447 -1.70181,4.99098 -3.72612,3.1935c-0.58874,-0.52277 -0.80599,-1.30577 -0.73063,-2.04999c-0.96492,-0.88337 -0.5003,-2.29405 -0.9648,-3.52041l-0.03184,-0.23806c0,0 0,-0.5 0.5,-0.5c0.43998,0 0.49279,0.38716 0.49913,0.48011c0.19992,0.67232 0.10647,1.88617 0.38547,2.61713c0.38781,-0.6223 1.03669,-1.02794 1.86166,-0.89482c0,0 0.02426,0.00606 0.06056,0.0209c0.32381,-0.03974 0.62122,-0.03266 0.91899,0.03084c-0.40038,-0.67921 -0.56003,-1.41121 -0.77339,-2.25791l-0.0625,-0.25c0,0 -0.12127,-0.48507 0.3638,-0.60634zM252.56757,185.24301c-0.36724,0.53826 -0.39936,1.75954 0.04892,2.19852c1.04631,1.0246 3.22249,-0.97654 2.09624,-2.18112c-0.48977,-0.2847 -0.96306,-0.2262 -1.49771,-0.08784l0.04479,0.05598c0,0 -0.34371,0.34371 -0.69224,0.01446z"/></g></g></svg>