<svg version="1.1" xmlns="http://www.w3.org/2000/svg" xmlns:xlink="http://www.w3.org/1999/xlink" width="32.6339" height="40.20027" viewBox="0,0,32.6339,40.20027"><g transform="translate(-223.39285,-160.30075)"><g data-paper-data="{&quot;isPaintingLayer&quot;:true}" fill="#ffffff" fill-rule="nonzero" stroke="none" stroke-width="0.5" stroke-linecap="butt" stroke-linejoin="miter" stroke-miterlimit="10" stroke-dasharray="" stroke-dashoffset="0" style="mix-blend-mode: normal"><path d="M251.53212,196.21788c0.19644,-0.10578 -0.24172,1.38058 -1.5586,2.20353c-0.41853,0.20014 -2.94455,1.32814 -4.52068,1.47507c-0.09362,0.00873 -3.03998,0.5647 -3.16924,0.57894c-1.31051,0.00164 -6.81923,0.38129 -6.82431,-1.83983c-0.00509,-2.22659 3.14513,-3.53535 1.88515,-5.99532c0,0 -0.22361,-0.44721 0.22361,-0.67082c0.44721,-0.22361 0.67082,0.22361 0.67082,0.22361c1.22425,2.49713 -0.82656,4.33224 -1.78151,6.50468c-0.07965,0.1812 1.11513,0.45943 1.21363,0.48595c1.2138,0.32681 2.59269,0.14869 3.84302,0.15042c0.6076,-0.06816 1.27275,-0.00411 1.78598,-0.38073c0.33296,-0.24434 0.15061,-0.91145 0.26442,-1.26912c0.24544,-0.77137 1.84465,-2.08086 2.02487,-3.15437l-0.04762,-0.02989c-0.78003,0 -1.40497,0.11489 -2.1678,0.2432c0,0 -0.4932,0.0822 -0.5754,-0.411c-0.0822,-0.4932 0.411,-0.5754 0.411,-0.5754c0.6829,-0.11264 1.28022,-0.21765 1.94783,-0.24803c-0.28149,-0.29216 -0.6272,-0.59903 -0.7725,-0.80149l-0.17583,-0.26327c0,0 -0.27735,-0.41603 0.13868,-0.69338c0.41603,-0.27735 0.69338,0.13868 0.69338,0.13868l0.15751,0.23673c0.3325,0.46799 1.18758,1.10972 1.32699,1.6646c0.42012,1.67221 -1.63353,2.90829 -2.0066,4.19177c-0.08846,0.30432 -0.08144,0.54955 -0.09185,0.77493c0.07889,-0.01691 0.17921,0.53027 0.69798,0.59186c0.27042,0.03211 1.16741,0.0891 1.53273,-0.00719c0.84493,-0.22271 2.05194,-0.37736 2.97311,-0.99081c0.78793,-0.31868 1.59334,-1.00599 1.90123,-2.13332z"/><path d="M235.55909,171.2488c0.06996,-0.21221 0.2165,-0.4284 0.4582,-0.64565c0.16239,-0.14596 0.38428,-0.24177 0.64028,-0.2929c-0.15189,-0.04132 -0.30824,-0.07453 -0.46865,-0.09971c-1.22577,-0.19239 -1.15345,0.39158 -0.62982,1.03826zM239.27956,172.81114c-0.23007,0.0659 -0.50551,0.08328 -0.79118,0.07342c0.20548,0.10674 0.35684,0.17824 0.40239,0.19171c0.32854,0.04562 0.41646,-0.07811 0.38878,-0.26513zM236.63664,171.67413c0.13227,-0.04385 0.2555,-0.02624 0.2555,-0.02624c0.49827,0.0712 1.00006,0.15391 1.50069,0.20682c-0.54274,-0.28463 -0.85717,-0.82744 -1.76725,-0.45784c-0.12074,0.04903 -0.09957,0.14916 0.01106,0.27727zM237.98742,173.79197c-0.10531,-0.0151 -0.19283,-0.06574 -0.24676,-0.10461c-0.12026,-0.01723 -0.24053,-0.03445 -0.36079,-0.05168c-1.13573,-0.23086 -3.28797,-1.11293 -3.34092,-2.57888c-0.04536,-1.25602 1.16004,-1.96968 2.27214,-1.83877c0.7191,0.08465 1.69309,0.69292 2.49092,1.45191c0.60575,0.3078 1.06538,0.77338 1.08905,1.33433c0.60395,1.04035 0.52686,1.98955 -1.13898,2.06232c-0.19632,-0.05478 -0.46515,-0.14852 -0.76466,-0.27462z"/><path d="M236.12106,165.55077c0.032,-0.1472 0.13761,-0.39007 0.48608,-0.39007c0.5,0 0.5,0.5 0.5,0.5l-0.09313,0.36205c-1.48517,2.06786 -3.54484,2.83713 -6.03351,2.56347c0,0 -0.49694,-0.05522 -0.44173,-0.55216c0.05522,-0.49694 0.55216,-0.44173 0.55216,-0.44173c2.07958,0.23367 3.77395,-0.34544 5.03013,-2.04156z"/><path d="M240.50337,161.32204c0.07425,0.08486 0.12475,0.20951 0.09875,0.39153c-0.07071,0.49497 -0.56569,0.42426 -0.56569,0.42426c-3.4625,-0.49464 -5.81491,0.54984 -9.09231,1.4658c-3.08538,1.79047 -6.55126,4.27286 -6.55126,8.25351c0,3.78623 3.29317,6.42021 6.64777,7.37948c4.09023,1.3632 7.75905,1.69195 12.06651,1.69195c3.36177,0.0079 8.39716,0.21065 10.62227,-2.75617c2.85636,-2.75861 0.45418,-7.40755 -0.92025,-10.15076c-1.91904,-3.3598 -5.32147,-5.16604 -8.90278,-6.18152c-1.19635,-0.30063 -2.19348,-0.63162 -3.40301,-0.51809zM239.26398,161.04787c-0.00266,-0.01199 -0.00506,-0.02435 -0.00718,-0.0371c-0.0822,-0.4932 0.411,-0.5754 0.411,-0.5754l0.44006,-0.07321c1.4739,-0.21056 2.64148,0.16002 4.05719,0.51199c3.85356,1.11024 7.45982,3.0616 9.52579,6.67563c1.60094,3.20772 3.90938,8.07553 0.79403,11.27782c-2.42997,3.23997 -7.70403,3.09102 -11.37773,3.10097c-4.40352,0 -8.17912,-0.34208 -12.36206,-1.73662c-3.76273,-1.07412 -7.35223,-4.11978 -7.35223,-8.33481c0,-4.39963 3.70299,-7.2212 7.16302,-9.17506c3.13666,-0.90979 5.53672,-1.87323 8.7081,-1.63421z"/><path d="M244.61969,189.84878c-0.05017,-0.07525 -0.07765,-0.14597 -0.08901,-0.21132c-1.76769,1.8104 -8.15437,1.10885 -8.18048,-2.36537c-0.05841,0.01304 -0.11696,0.0258 -0.17567,0.03824l0.03206,0.08815l-0.77483,0.28176c-0.05634,0.02199 -0.11764,0.03406 -0.18176,0.03406c-0.27614,0 -0.5,-0.22386 -0.5,-0.5c0,-0.11012 0.0356,-0.21192 0.09592,-0.29453l0.46111,-0.64853c0.49518,-0.99318 1.03491,-2.33401 1.80371,-3.12478c0,0 0.35355,-0.35355 0.70711,0c0.35355,0.35355 0,0.70711 0,0.70711c-0.52958,0.5085 -0.95099,1.41662 -1.31336,2.20794c2.15227,-1.23581 7.25893,-1.07739 8.33315,0.53996c0.04903,0.07382 -0.46385,-1.11548 -0.64974,-1.86247c-0.04589,-0.32353 -0.11385,-0.64478 -0.20437,-0.95876l-0.01924,-0.35165c0,0 0,-0.5 0.5,-0.5v-0.00001c0.5,0 0.5,0.5 0.5,0.5l-0.01924,0.07693c0.09682,0.34158 0.17365,0.68983 0.2242,1.04124c0.06047,0.24068 0.21871,0.7476 0.32564,1.29133c0.01338,-0.01623 0.02815,-0.0325 0.04442,-0.04877c0.35355,-0.35355 0.70711,0 0.70711,0c2.12939,2.13393 6.62705,-0.21463 5.41572,-3.34707l-0.25672,-0.37917c0,0 -0.27735,-0.41603 0.13868,-0.69338c0.41603,-0.27735 0.69338,0.13868 0.69338,0.13868l0.3147,0.47797c1.49842,4.07325 -3.95004,7.46126 -6.95919,4.5627c0.0351,0.5472 -0.05247,1.02794 -0.4246,1.19314c-0.07323,0.03251 -0.21989,0.0004 -0.41128,-0.0715c0.25011,0.53665 0.27811,1.00127 0.13958,1.39253l0.07598,-0.05065c0.6948,-0.44359 1.46576,-0.54767 2.28241,-0.65098c1.65216,-0.20552 3.45837,2.17474 4.98562,1.61979c0.53857,-0.1957 0.06683,-3.43616 0.01238,-3.92614c0,0 -0.05522,-0.49694 0.44173,-0.55216c0.49694,-0.05522 0.55216,0.44173 0.55216,0.44173c0.07185,0.64671 0.14538,1.26088 0.14592,1.91236c0.00045,0.54816 0.04549,1.12906 -0.00097,1.67393c-0.30548,3.58255 -4.50612,-0.43391 -6.0041,-0.17835c-0.62887,0.07758 -1.34396,0.12423 -1.86045,0.49188l-0.21429,0.14286c0,0 -0.41603,0.27735 -0.69338,-0.13868zM242.96788,186.92498l-0.07143,-0.07143c0,0 -0.05629,-0.05629 -0.10149,-0.14641c-0.23388,-0.11073 -0.4321,-0.19183 -0.56197,-0.21502c-1.79274,-0.32014 -3.31809,0.12605 -4.88339,0.53418c-0.58939,3.10704 9.76691,4.01319 5.61828,-0.10132z"/><path d="M231.26046,188.58285c-0.23649,-0.06182 -0.43937,-0.10981 -0.5526,-0.12598c-0.44838,-0.06405 -1.71329,-0.09431 -1.89859,-0.60819c-0.32719,-0.9074 1.75855,-2.20424 2.31024,-2.57106c0.9958,-0.85599 1.35259,-1.49695 1.16409,-2.81645l-0.11212,-0.24216c0,0 -0.1857,-0.46424 0.27854,-0.64993v0.00001c0.46424,-0.1857 0.64993,0.27854 0.64993,0.27854l0.17359,0.47213c0.24137,1.6896 -0.27725,2.66677 -1.5502,3.75498c-0.16044,0.10722 -1.30851,0.97041 -1.77711,1.30125c0.40674,-0.03596 1.29479,0.14659 1.40304,0.16236c1.60332,0.23356 3.05634,1.4377 4.715,1.42355c0,0 0.5,0 0.5,0.5c0,0.5 -0.5,0.5 -0.5,0.5c-0.70633,-0.00472 -3.47102,-1.07384 -3.51658,-1.01255c-0.10294,-0.03126 -1.339,-0.28775 -1.28723,-0.3665z"/><path d="M236.3113,197.59204c-0.01086,0.42265 -0.09008,0.61812 -0.20162,0.65614c-0.63293,0.66235 -4.98764,0.94238 -6.21171,0.20794c-0.90667,-0.544 -0.77005,-1.78742 -0.83272,-2.66388c-0.25079,-3.50747 0.8994,-4.21252 2.22874,-4.39691c1.32561,-0.18387 2.83003,0.14803 2.83003,0.14803c0,0 1.3351,0.21896 1.75071,0.01116c0.06948,-0.03658 0.14862,-0.05728 0.2326,-0.05728c0.00675,0 0.01347,0.00013 0.02015,0.0004c0.49266,0.0132 0.57524,0.27286 0.47874,0.53308c-0.01414,0.21393 -0.16283,0.39108 -0.36222,0.44761c-0.06157,0.0403 -0.12492,0.06917 -0.18577,0.08206c-1.66151,0.35175 -5.27204,-1.50159 -5.87456,0.7116c-0.18335,0.67348 -0.20559,1.55706 -0.15009,2.22738c0.09087,1.09762 -0.13974,1.76382 0.21316,2.12128c0.77992,0.78999 2.57015,0.18698 3.96709,0.21337c0.40015,0.00756 0.95678,-0.06645 1.20951,-0.45157c0.04739,-0.07221 -0.23497,-0.78426 -0.21851,-1.12993c-0.0267,-0.06119 -0.04152,-0.12876 -0.04152,-0.1998c0,-0.00563 0.00009,-0.01123 0.00028,-0.01682c0.00747,-0.37051 0.40089,-0.48318 0.49972,-0.48318c0.27614,0 0.5,0.22386 0.5,0.5c0,0.16094 0.15478,1.27568 0.14801,1.53931z"/><path d="M246.84363,168.51502c0.04773,0.01012 0.09663,0.02252 0.14651,0.03708c0.04563,-0.04406 0.09326,-0.08642 0.14292,-0.12694c-0.024,-0.00015 -0.04795,-0.00042 -0.07184,-0.00085zM248.68843,171.75975c-0.41745,0.02685 -0.87673,-0.03801 -1.32644,-0.17126c0.21662,0.33604 0.54809,0.52786 0.9678,0.40803c0.1823,-0.05205 0.2972,-0.13389 0.35864,-0.23678zM247.96803,169.03037c0.51952,0.34296 1.03152,0.81434 1.39,1.31814c0.06285,-0.01022 0.12371,-0.02258 0.1822,-0.03693c0.27627,-0.54141 -0.75282,-1.28471 -1.56014,-1.28471c-0.00404,0.00114 -0.00806,0.00231 -0.01206,0.00349zM246.20142,171.07532c-1.22984,-0.75007 -1.90228,-1.96933 -0.40861,-2.92714c0.01859,-0.29126 0.3215,-0.41242 0.3215,-0.41242l0.75781,-0.29341c1.19202,-0.01548 6.04384,1.10823 4.4274,3.39163c-0.29559,0.41755 -0.83563,0.5907 -1.4617,0.60705c0.07936,0.6095 -0.22232,1.16565 -1.1676,1.49577c-1.41667,0.49473 -2.30731,-0.57856 -2.46879,-1.86148zM247.25395,169.66433c-0.02554,0.05296 -0.04824,0.10788 -0.06817,0.16436c0.21881,0.16761 0.46073,0.293 0.71015,0.38177c-0.22654,-0.22116 -0.45897,-0.41477 -0.64199,-0.54613z"/></g></g></svg>