<svg version="1.1" xmlns="http://www.w3.org/2000/svg" xmlns:xlink="http://www.w3.org/1999/xlink" width="63.29312" height="60.82726" viewBox="0,0,63.29312,60.82726"><g transform="translate(-208.79966,-152.03154)"><g data-paper-data="{&quot;isPaintingLayer&quot;:true}" fill="#ff6666" fill-rule="nonzero" stroke="none" stroke-width="0.5" stroke-linecap="butt" stroke-linejoin="miter" stroke-miterlimit="10" stroke-dasharray="" stroke-dashoffset="0" style="mix-blend-mode: normal"><path d="M217.67582,169.56395c-2.41796,-0.636 -4.29797,-2.19564 -4.49228,-4.27432c-0.29792,0.8416 -0.44035,1.65043 -0.38771,2.38776c1.12954,0.96333 2.77621,1.59625 4.58449,1.84862c0.09857,0.01376 0.19706,0.02639 0.2955,0.03794zM226.12375,159.65977c-1.51367,-0.23868 -3.17461,-0.23021 -4.42068,0.08314c0.38464,0.03401 0.9529,0.22386 1.09843,1.02429c0.22549,1.24013 -1.01463,1.46559 -1.01463,1.46559c-7.43645,1.24587 -2.54605,4.39396 2.91163,3.24174c0.60698,-0.55422 1.12159,-1.23773 1.4869,-2.06105c0.41438,-0.93391 0.34365,-2.33795 -0.06164,-3.75371zM231.18383,164.98624c-1.06235,3.33758 -3.7528,5.36382 -6.91543,6.28826c0.12287,0.15254 0.21899,0.35872 0.26278,0.6368c0.19607,1.24509 -1.04902,1.44119 -1.04902,1.44119l-0.84054,0.13235c-2.53193,0.3927 -2.74545,0.5977 -5.34159,0.29631c-3.95828,-0.45956 -6.15959,-2.58938 -6.79286,-5.32147c-1.91983,-2.02735 -2.45951,-4.87495 -0.36929,-8.31619c0.69367,-1.14204 2.5827,-3.11945 3.47666,-4.0999c2.52487,-1.97345 4.9593,-4.36621 8.47541,-3.96823c0.65994,0.07469 1.29483,0.2863 1.8941,0.60653c1.10289,-0.20775 2.19602,-0.26298 3.24413,-0.13136c1.92926,1.54397 3.3363,3.20854 3.98553,5.55753c1.44354,0.91309 2.15864,2.42174 1.31845,4.81107c-0.25506,0.72539 -0.72372,1.4213 -1.34832,2.06715zM224.86628,156.87805c-0.40969,-0.62803 -0.88105,-1.17544 -1.39335,-1.57909c-1.80718,0.62639 -3.735,1.86445 -5.4487,3.38734c0.89749,-0.47141 1.83569,-0.88723 2.58159,-1.24534c0.96343,-0.27243 2.54635,-0.5162 4.26048,-0.56291zM227.81436,157.01864c0.08316,0.01124 0.166,0.02314 0.24843,0.03577c-0.27563,-0.47221 -0.60143,-0.91488 -0.96563,-1.32765c0.26336,0.41209 0.50335,0.84518 0.71719,1.29188zM228.88334,160.4993c0.11026,0.78034 0.12882,1.54717 0.04283,2.26631c0.12932,-0.67736 0.17871,-1.3995 0.13762,-2.16416c-0.05811,-0.03479 -0.11831,-0.06885 -0.18042,-0.10215z"/><path d="M257.63822,164.48193c-0.39505,2.10439 0.3343,4.00897 1.96937,4.08412c0.27004,-2.36525 2.48751,-4.34274 4.98062,-5.36889c0.18486,-1.43666 0.11339,-2.82204 -0.27294,-3.85951c-0.08863,-0.1602 -0.17997,-0.31259 -0.27387,-0.45737c-3.17299,0.3082 -5.09857,2.16509 -5.9644,4.17207l0.00524,0.43155c0,0 0,0.62868 -0.444,0.99805zM268.55592,164.30444c-0.16275,0.00013 -0.36742,0.07853 -0.58838,0.199c-0.66874,1.36962 -1.5235,2.72846 -2.50508,3.90226c-0.43997,0.83857 -0.95517,1.60528 -1.53242,2.25849c1.43131,0.47531 3.86059,-0.32794 4.83575,-3.43595c0.10545,-0.97369 0.02037,-1.96375 -0.20986,-2.9238zM263.26669,173.72067c-0.95045,0.00066 -1.81128,-0.29436 -2.46304,-0.98045c-1.9154,0.50309 -4.1088,-0.19277 -6.35239,-2.81019c-2.81523,-3.28432 -2.16043,-7.35903 0.09872,-10.44367c-4.18901,4.16779 -6.56165,11.72267 -0.42225,14.75136c1.06162,0.52371 3.13102,0.591 4.17807,0.69892c1.97807,0.20389 3.27857,-0.35809 4.96088,-1.216zM269.42013,160.1757c0.54459,0.9081 0.99401,1.89964 1.31449,2.94874c1.45193,0.98509 1.96516,3.09232 0.40692,6.70358c-0.38895,0.90139 -0.8807,1.7714 -1.49343,2.53844c-1.1496,1.43915 -3.24418,2.57627 -4.86017,3.40698c-2.30014,1.16079 -4.12037,1.92604 -6.73299,1.67165c-1.55224,-0.15115 -3.60691,-0.22191 -5.05461,-0.95254c-12.61534,-6.36686 1.23655,-26.57033 10.3054,-21.62528c2.25405,0.12146 4.47163,1.24776 6.20749,3.80375c0.02642,0.45154 -0.00655,0.95885 -0.09312,1.50472zM261.92953,157.29125c-0.73287,0.12862 -1.4598,0.39487 -2.14997,0.76812c-0.1302,0.13068 -0.25534,0.27715 -0.37478,0.43997c0.81732,-0.47342 1.67032,-0.88161 2.52475,-1.20809z"/><path d="M265.62569,210.79476c-0.0871,0.04356 -0.17084,0.07701 -0.25123,0.10167c-0.01578,0.16101 -0.0335,0.32182 -0.05319,0.48242c-4.69836,0.20898 -9.43413,0.22217 -14.18285,0.1c-0.63269,0.83111 -1.31109,1.4486 -1.90544,1.37381c-0.61142,-0.07694 -1.08587,-0.68288 -1.45405,-1.48196c-3.3995,-0.13061 -6.8027,-0.32313 -10.2006,-0.55553l-0.34635,0.6061c-0.21397,0.39109 -0.62926,0.65634 -1.10652,0.65634c-0.62672,0 -1.1466,-0.45742 -1.24403,-1.05658l-0.07341,-0.4038c-5.43733,-0.40435 -10.8549,-0.89552 -16.21593,-1.38268c-1.67904,-0.15687 -7.00117,-0.61157 -7.95043,-2.30112c-0.75841,-1.34981 3.07697,-6.86012 3.85719,-7.95411c1.05782,-1.48319 2.1725,-2.93565 3.31003,-4.37649c-0.09915,-0.33906 -0.20462,-0.67812 -0.31773,-1.01728c0,0 -0.39858,-1.19576 0.79718,-1.59436c0.67167,-0.22388 1.09182,0.05526 1.33108,0.34297c3.0891,-3.84451 6.21369,-7.6779 8.71812,-11.86858c0,0 0.6485,-1.08083 1.72931,-0.43233c0.5879,0.35275 0.66415,0.83338 0.61142,1.19843c0.07676,-0.22353 0.1478,-0.44403 0.21264,-0.66123l0.3289,-1.15116c-0.66799,0.07754 -1.3367,0.16378 -2.00645,0.2597l-0.36989,0.01265c0,0 -1.26044,0 -1.26044,-1.26044c0,-1.26044 1.26044,-1.26044 1.26044,-1.26044l0.01339,0.01268c6.26106,-0.89209 12.42947,-0.97085 18.76664,-0.97085c4.80807,0.11397 7.02514,4.48076 9.1535,8.31924c0.82751,1.49242 1.68915,3.05557 2.53445,4.67144c0.30193,0.26905 0.65117,0.65974 1.06397,1.1973c1.34936,1.75724 2.22882,4.61842 2.95282,7.6715c1.08171,2.97843 1.8589,6.01867 2.08087,9.03116c0.14288,0.48194 0.2921,0.93586 0.4499,1.355l0.33044,0.64542c0,0 0.5637,1.12737 -0.5637,1.69106zM263.49853,209.34341c-1.3969,-3.73861 -2.63841,-7.62095 -3.69525,-11.473c-0.52775,-1.52574 -1.08033,-3.04281 -1.68068,-4.55197c-1.98913,4.70978 -2.50955,9.96346 -4.90016,14.6255c-0.05954,0.11614 -0.13716,0.26971 -0.23006,0.45068c2.93628,-0.08684 8.56785,-0.5617 10.51758,0.972zM246.66048,207.2187c-1.18663,-5.88882 -1.54347,-11.94244 -1.90652,-17.92968c-0.06721,-1.10909 0.23164,-9.09401 -0.75498,-9.78907c-0.6723,-0.47362 -0.13222,1.65151 -0.36702,2.43964c-0.73113,2.45431 -1.04072,4.73448 -1.47376,7.24668c-0.84011,4.87366 -1.51642,13.31473 -3.80982,18.90105c2.83315,0.12675 5.67334,0.21849 8.53475,0.27034c-0.09655,-0.46894 -0.1687,-0.87124 -0.22264,-1.13896zM232.42648,189.7443c-0.14901,-1.21494 -0.43531,-2.54885 -0.60322,-3.87766c-2.05079,5.88809 -4.75294,11.95035 -8.31115,16.9394l0.19209,0.10805l-1.22369,2.17548c-0.21269,0.3954 -0.63035,0.66418 -1.11075,0.66418c-0.59985,0 -1.10183,-0.41902 -1.22921,-0.98032l-0.37687,-1.50749c-0.46614,-1.86783 -0.79201,-3.71367 -1.18545,-5.55163c-0.69072,0.90079 -1.36859,1.80851 -2.02611,2.72753c-0.39898,0.55762 -1.50195,2.59846 -1.9575,3.35687c-0.45774,0.76204 -2.37611,1.56036 -1.66006,2.08712c0.82209,0.60479 4.89249,0.75067 5.88575,0.8382c5.25011,0.47748 10.41508,0.8755 15.58139,1.16442c-0.56617,-6.06463 -1.23314,-12.09387 -1.97522,-18.14413zM221.7585,200.69555c1.18386,-5.8046 6.57423,-13.22106 8.7097,-18.88167c-2.84944,4.71969 -6.44125,9.00313 -9.89795,13.35424c0.46127,1.83528 0.79171,3.67389 1.18825,5.52743zM233.73257,179.40416l0.39006,2.47035l-0.25398,0.04011c1.9314,6.41692 2.29179,13.88025 2.70824,20.80074c0.25769,-0.94243 0.49977,-1.76881 0.61414,-2.3115c1.33779,-6.34722 2.15622,-12.99221 4.02455,-19.18258c0.17228,-0.57081 0.40914,-1.56562 0.79138,-2.44869c-2.78699,0.04936 -5.55581,0.15899 -8.33018,0.3988c0.02566,0.07467 0.04449,0.15251 0.05576,0.2328zM247.27023,189.13651c0.30412,5.02073 0.51421,10.1817 1.40285,15.13797c0.24737,1.37968 0.64588,2.73451 0.85193,4.11951c0.35971,0.00335 0.71981,0.00608 1.08035,0.00814c0.07873,-0.58543 0.15725,-1.18363 0.37264,-1.60598c2.58941,-5.07775 2.95877,-10.84804 5.46685,-15.86421c0.14717,-0.21047 0.28083,-0.42069 0.40581,-0.62321c-0.68757,-1.52862 -1.44066,-3.0496 -2.2836,-4.56379c-1.51407,-2.71981 -3.40855,-7.13467 -6.94366,-7.01143c-0.51424,0 -1.02736,0.00045 -1.53948,0.00179c1.37562,2.93994 1.08295,8.69621 1.18628,10.40122z"/></g></g></svg>